<?xml version="1.0" encoding="UTF-8" standalone="no"?>
<!DOCTYPE svg PUBLIC "-//W3C//DTD SVG 1.1//EN" "http://www.w3.org/Graphics/SVG/1.1/DTD/svg11.dtd">
<svg width="100%" height="100%" viewBox="0 0 1398 2249" version="1.1" xmlns="http://www.w3.org/2000/svg" xmlns:xlink="http://www.w3.org/1999/xlink" xml:space="preserve" xmlns:serif="http://www.serif.com/" style="fill-rule:evenodd;clip-rule:evenodd;stroke-linecap:round;stroke-linejoin:round;stroke-miterlimit:10;">
    <g transform="matrix(1,0,0,1,-3969.293889,-643.613889)">
        <g>
            <g transform="matrix(5.555556,0,0,5.555556,5277.308333,813.758333)">
                <path d="M0,-21.917C-3.511,-21.917 -6.357,-19.071 -6.357,-15.56L-6.357,0" style="fill:none;fill-rule:nonzero;stroke:rgb(16,134,76);stroke-width:1.21px;"/>
            </g>
            <g transform="matrix(5.555556,0,0,5.555556,5328.434444,691.997222)">
                <path d="M0,21.917C3.511,21.917 6.357,19.071 6.357,15.56L6.357,0" style="fill:none;fill-rule:nonzero;stroke:rgb(16,134,76);stroke-width:1.21px;"/>
            </g>
            <g transform="matrix(5.555556,0,0,5.555556,5051.8,813.758333)">
                <path d="M0,-21.917C-3.511,-21.917 -6.357,-19.071 -6.357,-15.56L-6.357,0" style="fill:none;fill-rule:nonzero;stroke:rgb(16,134,76);stroke-width:1.21px;"/>
            </g>
            <g transform="matrix(5.555556,0,0,5.555556,5102.926111,691.997222)">
                <path d="M0,21.917C3.511,21.917 6.357,19.071 6.357,15.56L6.357,0" style="fill:none;fill-rule:nonzero;stroke:rgb(16,134,76);stroke-width:1.21px;"/>
            </g>
            <g transform="matrix(5.555556,0,0,5.555556,4827.540556,813.758333)">
                <path d="M0,-21.917C-3.511,-21.917 -6.357,-19.071 -6.357,-15.56L-6.357,0" style="fill:none;fill-rule:nonzero;stroke:rgb(16,134,76);stroke-width:1.21px;"/>
            </g>
            <g transform="matrix(5.555556,0,0,5.555556,4878.666667,691.997222)">
                <path d="M0,21.917C3.511,21.917 6.357,19.071 6.357,15.56L6.357,0" style="fill:none;fill-rule:nonzero;stroke:rgb(16,134,76);stroke-width:1.21px;"/>
            </g>
            <g transform="matrix(5.555556,0,0,5.555556,4602.032222,813.758333)">
                <path d="M0,-21.917C-3.511,-21.917 -6.357,-19.071 -6.357,-15.56L-6.357,0" style="fill:none;fill-rule:nonzero;stroke:rgb(16,134,76);stroke-width:1.21px;"/>
            </g>
            <g transform="matrix(5.555556,0,0,5.555556,4653.158333,691.997222)">
                <path d="M0,21.917C3.511,21.917 6.357,19.071 6.357,15.56L6.357,0" style="fill:none;fill-rule:nonzero;stroke:rgb(16,134,76);stroke-width:1.21px;"/>
            </g>
            <g transform="matrix(5.555556,0,0,5.555556,4376.524444,813.758333)">
                <path d="M0,-21.917C-3.511,-21.917 -6.357,-19.071 -6.357,-15.56L-6.357,0" style="fill:none;fill-rule:nonzero;stroke:rgb(16,134,76);stroke-width:1.21px;"/>
            </g>
            <g transform="matrix(5.555556,0,0,5.555556,4427.650556,691.997222)">
                <path d="M0,21.917C3.511,21.917 6.357,19.071 6.357,15.56L6.357,0" style="fill:none;fill-rule:nonzero;stroke:rgb(16,134,76);stroke-width:1.21px;"/>
            </g>
            <g transform="matrix(5.555556,0,0,5.555556,4151.016111,813.758333)">
                <path d="M0,-21.917C-3.511,-21.917 -6.357,-19.071 -6.357,-15.56L-6.357,0" style="fill:none;fill-rule:nonzero;stroke:rgb(16,134,76);stroke-width:1.21px;"/>
            </g>
            <g transform="matrix(5.555556,0,0,5.555556,4202.142222,691.997222)">
                <path d="M0,21.917C3.511,21.917 6.357,19.071 6.357,15.56L6.357,0" style="fill:none;fill-rule:nonzero;stroke:rgb(16,134,76);stroke-width:1.21px;"/>
            </g>
            <g transform="matrix(5.555556,0,0,5.555556,3972.668889,691.997222)">
                <path d="M0,21.917C3.511,21.917 6.357,19.071 6.357,15.56L6.357,0" style="fill:none;fill-rule:nonzero;stroke:rgb(16,134,76);stroke-width:1.21px;"/>
            </g>
            <g transform="matrix(5.555556,0,0,5.555556,5216.427222,768.75)">
                <path d="M0,-21.917C-3.511,-21.917 -6.357,-19.071 -6.357,-15.56L-6.357,0" style="fill:none;fill-rule:nonzero;stroke:rgb(16,134,76);stroke-width:1.21px;"/>
            </g>
            <g transform="matrix(5.555556,0,0,5.555556,5267.553333,646.989444)">
                <path d="M0,21.917C3.511,21.917 6.357,19.071 6.357,15.56L6.357,0" style="fill:none;fill-rule:nonzero;stroke:rgb(16,134,76);stroke-width:1.21px;"/>
            </g>
            <g transform="matrix(5.555556,0,0,5.555556,4990.918889,768.75)">
                <path d="M0,-21.917C-3.511,-21.917 -6.357,-19.071 -6.357,-15.56L-6.357,0" style="fill:none;fill-rule:nonzero;stroke:rgb(16,134,76);stroke-width:1.21px;"/>
            </g>
            <g transform="matrix(5.555556,0,0,5.555556,5042.045,646.989444)">
                <path d="M0,21.917C3.511,21.917 6.357,19.071 6.357,15.56L6.357,0" style="fill:none;fill-rule:nonzero;stroke:rgb(16,134,76);stroke-width:1.21px;"/>
            </g>
            <g transform="matrix(5.555556,0,0,5.555556,4766.66,768.75)">
                <path d="M0,-21.917C-3.511,-21.917 -6.357,-19.071 -6.357,-15.56L-6.357,0" style="fill:none;fill-rule:nonzero;stroke:rgb(16,134,76);stroke-width:1.21px;"/>
            </g>
            <g transform="matrix(5.555556,0,0,5.555556,4817.786111,646.989444)">
                <path d="M0,21.917C3.511,21.917 6.357,19.071 6.357,15.56L6.357,0" style="fill:none;fill-rule:nonzero;stroke:rgb(16,134,76);stroke-width:1.21px;"/>
            </g>
            <g transform="matrix(5.555556,0,0,5.555556,4541.151667,768.75)">
                <path d="M0,-21.917C-3.511,-21.917 -6.357,-19.071 -6.357,-15.56L-6.357,0" style="fill:none;fill-rule:nonzero;stroke:rgb(16,134,76);stroke-width:1.21px;"/>
            </g>
            <g transform="matrix(5.555556,0,0,5.555556,4592.277778,646.989444)">
                <path d="M0,21.917C3.511,21.917 6.357,19.071 6.357,15.56L6.357,0" style="fill:none;fill-rule:nonzero;stroke:rgb(16,134,76);stroke-width:1.21px;"/>
            </g>
            <g transform="matrix(5.555556,0,0,5.555556,4315.643333,768.75)">
                <path d="M0,-21.917C-3.511,-21.917 -6.357,-19.071 -6.357,-15.56L-6.357,0" style="fill:none;fill-rule:nonzero;stroke:rgb(16,134,76);stroke-width:1.21px;"/>
            </g>
            <g transform="matrix(5.555556,0,0,5.555556,4366.769444,646.989444)">
                <path d="M0,21.917C3.511,21.917 6.357,19.071 6.357,15.56L6.357,0" style="fill:none;fill-rule:nonzero;stroke:rgb(16,134,76);stroke-width:1.21px;"/>
            </g>
            <g transform="matrix(5.555556,0,0,5.555556,4090.135,768.75)">
                <path d="M0,-21.917C-3.511,-21.917 -6.357,-19.071 -6.357,-15.56L-6.357,0" style="fill:none;fill-rule:nonzero;stroke:rgb(16,134,76);stroke-width:1.21px;"/>
            </g>
            <g transform="matrix(5.555556,0,0,5.555556,4141.261111,646.989444)">
                <path d="M0,21.917C3.511,21.917 6.357,19.071 6.357,15.56L6.357,0" style="fill:none;fill-rule:nonzero;stroke:rgb(16,134,76);stroke-width:1.21px;"/>
            </g>
            <g transform="matrix(5.555556,0,0,5.555556,5277.308333,972.89)">
                <path d="M0,-21.917C-3.511,-21.917 -6.357,-19.071 -6.357,-15.56L-6.357,0" style="fill:none;fill-rule:nonzero;stroke:rgb(16,134,76);stroke-width:1.21px;"/>
            </g>
            <g transform="matrix(5.555556,0,0,5.555556,5328.434444,851.128889)">
                <path d="M0,21.917C3.511,21.917 6.357,19.071 6.357,15.56L6.357,0" style="fill:none;fill-rule:nonzero;stroke:rgb(16,134,76);stroke-width:1.21px;"/>
            </g>
            <g transform="matrix(5.555556,0,0,5.555556,5051.8,972.89)">
                <path d="M0,-21.917C-3.511,-21.917 -6.357,-19.071 -6.357,-15.56L-6.357,0" style="fill:none;fill-rule:nonzero;stroke:rgb(16,134,76);stroke-width:1.21px;"/>
            </g>
            <g transform="matrix(5.555556,0,0,5.555556,5102.926111,851.128889)">
                <path d="M0,21.917C3.511,21.917 6.357,19.071 6.357,15.56L6.357,0" style="fill:none;fill-rule:nonzero;stroke:rgb(16,134,76);stroke-width:1.21px;"/>
            </g>
            <g transform="matrix(5.555556,0,0,5.555556,4827.540556,972.89)">
                <path d="M0,-21.917C-3.511,-21.917 -6.357,-19.071 -6.357,-15.56L-6.357,0" style="fill:none;fill-rule:nonzero;stroke:rgb(16,134,76);stroke-width:1.21px;"/>
            </g>
            <g transform="matrix(5.555556,0,0,5.555556,4878.666667,851.128889)">
                <path d="M0,21.917C3.511,21.917 6.357,19.071 6.357,15.56L6.357,0" style="fill:none;fill-rule:nonzero;stroke:rgb(16,134,76);stroke-width:1.21px;"/>
            </g>
            <g transform="matrix(5.555556,0,0,5.555556,4602.032222,972.89)">
                <path d="M0,-21.917C-3.511,-21.917 -6.357,-19.071 -6.357,-15.56L-6.357,0" style="fill:none;fill-rule:nonzero;stroke:rgb(16,134,76);stroke-width:1.21px;"/>
            </g>
            <g transform="matrix(5.555556,0,0,5.555556,4653.158333,851.128889)">
                <path d="M0,21.917C3.511,21.917 6.357,19.071 6.357,15.56L6.357,0" style="fill:none;fill-rule:nonzero;stroke:rgb(16,134,76);stroke-width:1.21px;"/>
            </g>
            <g transform="matrix(5.555556,0,0,5.555556,4376.524444,972.89)">
                <path d="M0,-21.917C-3.511,-21.917 -6.357,-19.071 -6.357,-15.56L-6.357,0" style="fill:none;fill-rule:nonzero;stroke:rgb(16,134,76);stroke-width:1.21px;"/>
            </g>
            <g transform="matrix(5.555556,0,0,5.555556,4427.650556,851.128889)">
                <path d="M0,21.917C3.511,21.917 6.357,19.071 6.357,15.56L6.357,0" style="fill:none;fill-rule:nonzero;stroke:rgb(16,134,76);stroke-width:1.21px;"/>
            </g>
            <g transform="matrix(5.555556,0,0,5.555556,4151.016111,972.89)">
                <path d="M0,-21.917C-3.511,-21.917 -6.357,-19.071 -6.357,-15.56L-6.357,0" style="fill:none;fill-rule:nonzero;stroke:rgb(16,134,76);stroke-width:1.21px;"/>
            </g>
            <g transform="matrix(5.555556,0,0,5.555556,4202.142222,851.128889)">
                <path d="M0,21.917C3.511,21.917 6.357,19.071 6.357,15.56L6.357,0" style="fill:none;fill-rule:nonzero;stroke:rgb(16,134,76);stroke-width:1.21px;"/>
            </g>
            <g transform="matrix(5.555556,0,0,5.555556,3972.668889,851.128889)">
                <path d="M0,21.917C3.511,21.917 6.357,19.071 6.357,15.56L6.357,0" style="fill:none;fill-rule:nonzero;stroke:rgb(16,134,76);stroke-width:1.21px;"/>
            </g>
            <g transform="matrix(5.555556,0,0,5.555556,5216.427222,927.881667)">
                <path d="M0,-21.917C-3.511,-21.917 -6.357,-19.071 -6.357,-15.56L-6.357,0" style="fill:none;fill-rule:nonzero;stroke:rgb(16,134,76);stroke-width:1.21px;"/>
            </g>
            <g transform="matrix(5.555556,0,0,5.555556,5267.553333,806.121111)">
                <path d="M0,21.917C3.511,21.917 6.357,19.071 6.357,15.56L6.357,0" style="fill:none;fill-rule:nonzero;stroke:rgb(16,134,76);stroke-width:1.21px;"/>
            </g>
            <g transform="matrix(5.555556,0,0,5.555556,4990.918889,927.881667)">
                <path d="M0,-21.917C-3.511,-21.917 -6.357,-19.071 -6.357,-15.56L-6.357,0" style="fill:none;fill-rule:nonzero;stroke:rgb(16,134,76);stroke-width:1.21px;"/>
            </g>
            <g transform="matrix(5.555556,0,0,5.555556,5042.045,806.121111)">
                <path d="M0,21.917C3.511,21.917 6.357,19.071 6.357,15.56L6.357,0" style="fill:none;fill-rule:nonzero;stroke:rgb(16,134,76);stroke-width:1.21px;"/>
            </g>
            <g transform="matrix(5.555556,0,0,5.555556,4766.66,927.881667)">
                <path d="M0,-21.917C-3.511,-21.917 -6.357,-19.071 -6.357,-15.56L-6.357,0" style="fill:none;fill-rule:nonzero;stroke:rgb(16,134,76);stroke-width:1.21px;"/>
            </g>
            <g transform="matrix(5.555556,0,0,5.555556,4817.786111,806.121111)">
                <path d="M0,21.917C3.511,21.917 6.357,19.071 6.357,15.56L6.357,0" style="fill:none;fill-rule:nonzero;stroke:rgb(16,134,76);stroke-width:1.21px;"/>
            </g>
            <g transform="matrix(5.555556,0,0,5.555556,4541.151667,927.881667)">
                <path d="M0,-21.917C-3.511,-21.917 -6.357,-19.071 -6.357,-15.56L-6.357,0" style="fill:none;fill-rule:nonzero;stroke:rgb(16,134,76);stroke-width:1.21px;"/>
            </g>
            <g transform="matrix(5.555556,0,0,5.555556,4592.277778,806.121111)">
                <path d="M0,21.917C3.511,21.917 6.357,19.071 6.357,15.56L6.357,0" style="fill:none;fill-rule:nonzero;stroke:rgb(16,134,76);stroke-width:1.21px;"/>
            </g>
            <g transform="matrix(5.555556,0,0,5.555556,4315.643333,927.881667)">
                <path d="M0,-21.917C-3.511,-21.917 -6.357,-19.071 -6.357,-15.56L-6.357,0" style="fill:none;fill-rule:nonzero;stroke:rgb(16,134,76);stroke-width:1.21px;"/>
            </g>
            <g transform="matrix(5.555556,0,0,5.555556,4366.769444,806.121111)">
                <path d="M0,21.917C3.511,21.917 6.357,19.071 6.357,15.56L6.357,0" style="fill:none;fill-rule:nonzero;stroke:rgb(16,134,76);stroke-width:1.21px;"/>
            </g>
            <g transform="matrix(5.555556,0,0,5.555556,4090.135,927.881667)">
                <path d="M0,-21.917C-3.511,-21.917 -6.357,-19.071 -6.357,-15.56L-6.357,0" style="fill:none;fill-rule:nonzero;stroke:rgb(16,134,76);stroke-width:1.21px;"/>
            </g>
            <g transform="matrix(5.555556,0,0,5.555556,4141.261111,806.121111)">
                <path d="M0,21.917C3.511,21.917 6.357,19.071 6.357,15.56L6.357,0" style="fill:none;fill-rule:nonzero;stroke:rgb(16,134,76);stroke-width:1.21px;"/>
            </g>
            <g transform="matrix(5.555556,0,0,5.555556,5277.308333,1132.021667)">
                <path d="M0,-21.917C-3.511,-21.917 -6.357,-19.071 -6.357,-15.56L-6.357,0" style="fill:none;fill-rule:nonzero;stroke:rgb(16,134,76);stroke-width:1.21px;"/>
            </g>
            <g transform="matrix(5.555556,0,0,5.555556,5328.434444,1010.260556)">
                <path d="M0,21.917C3.511,21.917 6.357,19.071 6.357,15.56L6.357,0" style="fill:none;fill-rule:nonzero;stroke:rgb(16,134,76);stroke-width:1.21px;"/>
            </g>
            <g transform="matrix(5.555556,0,0,5.555556,5051.8,1132.021667)">
                <path d="M0,-21.917C-3.511,-21.917 -6.357,-19.071 -6.357,-15.56L-6.357,0" style="fill:none;fill-rule:nonzero;stroke:rgb(16,134,76);stroke-width:1.21px;"/>
            </g>
            <g transform="matrix(5.555556,0,0,5.555556,5102.926111,1010.260556)">
                <path d="M0,21.917C3.511,21.917 6.357,19.071 6.357,15.56L6.357,0" style="fill:none;fill-rule:nonzero;stroke:rgb(16,134,76);stroke-width:1.21px;"/>
            </g>
            <g transform="matrix(5.555556,0,0,5.555556,4827.540556,1132.021667)">
                <path d="M0,-21.917C-3.511,-21.917 -6.357,-19.071 -6.357,-15.56L-6.357,0" style="fill:none;fill-rule:nonzero;stroke:rgb(16,134,76);stroke-width:1.21px;"/>
            </g>
            <g transform="matrix(5.555556,0,0,5.555556,4878.666667,1010.260556)">
                <path d="M0,21.917C3.511,21.917 6.357,19.071 6.357,15.56L6.357,0" style="fill:none;fill-rule:nonzero;stroke:rgb(16,134,76);stroke-width:1.21px;"/>
            </g>
            <g transform="matrix(5.555556,0,0,5.555556,4602.032222,1132.021667)">
                <path d="M0,-21.917C-3.511,-21.917 -6.357,-19.071 -6.357,-15.56L-6.357,0" style="fill:none;fill-rule:nonzero;stroke:rgb(16,134,76);stroke-width:1.21px;"/>
            </g>
            <g transform="matrix(5.555556,0,0,5.555556,4653.158333,1010.260556)">
                <path d="M0,21.917C3.511,21.917 6.357,19.071 6.357,15.56L6.357,0" style="fill:none;fill-rule:nonzero;stroke:rgb(16,134,76);stroke-width:1.21px;"/>
            </g>
            <g transform="matrix(5.555556,0,0,5.555556,4376.524444,1132.021667)">
                <path d="M0,-21.917C-3.511,-21.917 -6.357,-19.071 -6.357,-15.56L-6.357,0" style="fill:none;fill-rule:nonzero;stroke:rgb(16,134,76);stroke-width:1.21px;"/>
            </g>
            <g transform="matrix(5.555556,0,0,5.555556,4427.650556,1010.260556)">
                <path d="M0,21.917C3.511,21.917 6.357,19.071 6.357,15.56L6.357,0" style="fill:none;fill-rule:nonzero;stroke:rgb(16,134,76);stroke-width:1.21px;"/>
            </g>
            <g transform="matrix(5.555556,0,0,5.555556,4151.016111,1132.021667)">
                <path d="M0,-21.917C-3.511,-21.917 -6.357,-19.071 -6.357,-15.56L-6.357,0" style="fill:none;fill-rule:nonzero;stroke:rgb(16,134,76);stroke-width:1.21px;"/>
            </g>
            <g transform="matrix(5.555556,0,0,5.555556,4202.142222,1010.260556)">
                <path d="M0,21.917C3.511,21.917 6.357,19.071 6.357,15.56L6.357,0" style="fill:none;fill-rule:nonzero;stroke:rgb(16,134,76);stroke-width:1.21px;"/>
            </g>
            <g transform="matrix(5.555556,0,0,5.555556,3972.668889,1010.260556)">
                <path d="M0,21.917C3.511,21.917 6.357,19.071 6.357,15.56L6.357,0" style="fill:none;fill-rule:nonzero;stroke:rgb(16,134,76);stroke-width:1.21px;"/>
            </g>
            <g transform="matrix(5.555556,0,0,5.555556,5216.427222,1087.013333)">
                <path d="M0,-21.917C-3.511,-21.917 -6.357,-19.071 -6.357,-15.56L-6.357,0" style="fill:none;fill-rule:nonzero;stroke:rgb(16,134,76);stroke-width:1.21px;"/>
            </g>
            <g transform="matrix(5.555556,0,0,5.555556,5267.553333,965.252778)">
                <path d="M0,21.917C3.511,21.917 6.357,19.071 6.357,15.56L6.357,0" style="fill:none;fill-rule:nonzero;stroke:rgb(16,134,76);stroke-width:1.21px;"/>
            </g>
            <g transform="matrix(5.555556,0,0,5.555556,4990.918889,1087.013333)">
                <path d="M0,-21.917C-3.511,-21.917 -6.357,-19.071 -6.357,-15.56L-6.357,0" style="fill:none;fill-rule:nonzero;stroke:rgb(16,134,76);stroke-width:1.21px;"/>
            </g>
            <g transform="matrix(5.555556,0,0,5.555556,5042.045,965.252778)">
                <path d="M0,21.917C3.511,21.917 6.357,19.071 6.357,15.56L6.357,0" style="fill:none;fill-rule:nonzero;stroke:rgb(16,134,76);stroke-width:1.21px;"/>
            </g>
            <g transform="matrix(5.555556,0,0,5.555556,4766.66,1087.013333)">
                <path d="M0,-21.917C-3.511,-21.917 -6.357,-19.071 -6.357,-15.56L-6.357,0" style="fill:none;fill-rule:nonzero;stroke:rgb(16,134,76);stroke-width:1.21px;"/>
            </g>
            <g transform="matrix(5.555556,0,0,5.555556,4817.786111,965.252778)">
                <path d="M0,21.917C3.511,21.917 6.357,19.071 6.357,15.56L6.357,0" style="fill:none;fill-rule:nonzero;stroke:rgb(16,134,76);stroke-width:1.21px;"/>
            </g>
            <g transform="matrix(5.555556,0,0,5.555556,4541.151667,1087.013333)">
                <path d="M0,-21.917C-3.511,-21.917 -6.357,-19.071 -6.357,-15.56L-6.357,0" style="fill:none;fill-rule:nonzero;stroke:rgb(16,134,76);stroke-width:1.21px;"/>
            </g>
            <g transform="matrix(5.555556,0,0,5.555556,4592.277778,965.252778)">
                <path d="M0,21.917C3.511,21.917 6.357,19.071 6.357,15.56L6.357,0" style="fill:none;fill-rule:nonzero;stroke:rgb(16,134,76);stroke-width:1.21px;"/>
            </g>
            <g transform="matrix(5.555556,0,0,5.555556,4315.643333,1087.013333)">
                <path d="M0,-21.917C-3.511,-21.917 -6.357,-19.071 -6.357,-15.56L-6.357,0" style="fill:none;fill-rule:nonzero;stroke:rgb(16,134,76);stroke-width:1.21px;"/>
            </g>
            <g transform="matrix(5.555556,0,0,5.555556,4366.769444,965.252778)">
                <path d="M0,21.917C3.511,21.917 6.357,19.071 6.357,15.56L6.357,0" style="fill:none;fill-rule:nonzero;stroke:rgb(16,134,76);stroke-width:1.21px;"/>
            </g>
            <g transform="matrix(5.555556,0,0,5.555556,4090.135,1087.013333)">
                <path d="M0,-21.917C-3.511,-21.917 -6.357,-19.071 -6.357,-15.56L-6.357,0" style="fill:none;fill-rule:nonzero;stroke:rgb(16,134,76);stroke-width:1.21px;"/>
            </g>
            <g transform="matrix(5.555556,0,0,5.555556,4141.261111,965.252778)">
                <path d="M0,21.917C3.511,21.917 6.357,19.071 6.357,15.56L6.357,0" style="fill:none;fill-rule:nonzero;stroke:rgb(16,134,76);stroke-width:1.21px;"/>
            </g>
            <g transform="matrix(5.555556,0,0,5.555556,5277.308333,1291.153333)">
                <path d="M0,-21.917C-3.511,-21.917 -6.357,-19.071 -6.357,-15.56L-6.357,0" style="fill:none;fill-rule:nonzero;stroke:rgb(16,134,76);stroke-width:1.21px;"/>
            </g>
            <g transform="matrix(5.555556,0,0,5.555556,5328.434444,1169.392778)">
                <path d="M0,21.917C3.511,21.917 6.357,19.071 6.357,15.56L6.357,0" style="fill:none;fill-rule:nonzero;stroke:rgb(16,134,76);stroke-width:1.21px;"/>
            </g>
            <g transform="matrix(5.555556,0,0,5.555556,5051.8,1291.153333)">
                <path d="M0,-21.917C-3.511,-21.917 -6.357,-19.071 -6.357,-15.56L-6.357,0" style="fill:none;fill-rule:nonzero;stroke:rgb(16,134,76);stroke-width:1.21px;"/>
            </g>
            <g transform="matrix(5.555556,0,0,5.555556,5102.926111,1169.392778)">
                <path d="M0,21.917C3.511,21.917 6.357,19.071 6.357,15.56L6.357,0" style="fill:none;fill-rule:nonzero;stroke:rgb(16,134,76);stroke-width:1.21px;"/>
            </g>
            <g transform="matrix(5.555556,0,0,5.555556,4827.540556,1291.153333)">
                <path d="M0,-21.917C-3.511,-21.917 -6.357,-19.071 -6.357,-15.56L-6.357,0" style="fill:none;fill-rule:nonzero;stroke:rgb(16,134,76);stroke-width:1.21px;"/>
            </g>
            <g transform="matrix(5.555556,0,0,5.555556,4878.666667,1169.392778)">
                <path d="M0,21.917C3.511,21.917 6.357,19.071 6.357,15.56L6.357,0" style="fill:none;fill-rule:nonzero;stroke:rgb(16,134,76);stroke-width:1.21px;"/>
            </g>
            <g transform="matrix(5.555556,0,0,5.555556,4602.032222,1291.153333)">
                <path d="M0,-21.917C-3.511,-21.917 -6.357,-19.071 -6.357,-15.56L-6.357,0" style="fill:none;fill-rule:nonzero;stroke:rgb(16,134,76);stroke-width:1.21px;"/>
            </g>
            <g transform="matrix(5.555556,0,0,5.555556,4653.158333,1169.392778)">
                <path d="M0,21.917C3.511,21.917 6.357,19.071 6.357,15.56L6.357,0" style="fill:none;fill-rule:nonzero;stroke:rgb(16,134,76);stroke-width:1.21px;"/>
            </g>
            <g transform="matrix(5.555556,0,0,5.555556,4376.524444,1291.153333)">
                <path d="M0,-21.917C-3.511,-21.917 -6.357,-19.071 -6.357,-15.56L-6.357,0" style="fill:none;fill-rule:nonzero;stroke:rgb(16,134,76);stroke-width:1.21px;"/>
            </g>
            <g transform="matrix(5.555556,0,0,5.555556,4427.650556,1169.392778)">
                <path d="M0,21.917C3.511,21.917 6.357,19.071 6.357,15.56L6.357,0" style="fill:none;fill-rule:nonzero;stroke:rgb(16,134,76);stroke-width:1.21px;"/>
            </g>
            <g transform="matrix(5.555556,0,0,5.555556,4151.016111,1291.153333)">
                <path d="M0,-21.917C-3.511,-21.917 -6.357,-19.071 -6.357,-15.56L-6.357,0" style="fill:none;fill-rule:nonzero;stroke:rgb(16,134,76);stroke-width:1.21px;"/>
            </g>
            <g transform="matrix(5.555556,0,0,5.555556,4202.142222,1169.392778)">
                <path d="M0,21.917C3.511,21.917 6.357,19.071 6.357,15.56L6.357,0" style="fill:none;fill-rule:nonzero;stroke:rgb(16,134,76);stroke-width:1.21px;"/>
            </g>
            <g transform="matrix(5.555556,0,0,5.555556,3972.668889,1169.392778)">
                <path d="M0,21.917C3.511,21.917 6.357,19.071 6.357,15.56L6.357,0" style="fill:none;fill-rule:nonzero;stroke:rgb(16,134,76);stroke-width:1.21px;"/>
            </g>
            <g transform="matrix(5.555556,0,0,5.555556,5216.427222,1246.145)">
                <path d="M0,-21.917C-3.511,-21.917 -6.357,-19.071 -6.357,-15.56L-6.357,0" style="fill:none;fill-rule:nonzero;stroke:rgb(16,134,76);stroke-width:1.21px;"/>
            </g>
            <g transform="matrix(5.555556,0,0,5.555556,5267.553333,1124.384444)">
                <path d="M0,21.917C3.511,21.917 6.357,19.071 6.357,15.56L6.357,0" style="fill:none;fill-rule:nonzero;stroke:rgb(16,134,76);stroke-width:1.21px;"/>
            </g>
            <g transform="matrix(5.555556,0,0,5.555556,4990.918889,1246.145)">
                <path d="M0,-21.917C-3.511,-21.917 -6.357,-19.071 -6.357,-15.56L-6.357,0" style="fill:none;fill-rule:nonzero;stroke:rgb(16,134,76);stroke-width:1.21px;"/>
            </g>
            <g transform="matrix(5.555556,0,0,5.555556,5042.045,1124.384444)">
                <path d="M0,21.917C3.511,21.917 6.357,19.071 6.357,15.56L6.357,0" style="fill:none;fill-rule:nonzero;stroke:rgb(16,134,76);stroke-width:1.21px;"/>
            </g>
            <g transform="matrix(5.555556,0,0,5.555556,4766.66,1246.145)">
                <path d="M0,-21.917C-3.511,-21.917 -6.357,-19.071 -6.357,-15.56L-6.357,0" style="fill:none;fill-rule:nonzero;stroke:rgb(16,134,76);stroke-width:1.21px;"/>
            </g>
            <g transform="matrix(5.555556,0,0,5.555556,4817.786111,1124.384444)">
                <path d="M0,21.917C3.511,21.917 6.357,19.071 6.357,15.56L6.357,0" style="fill:none;fill-rule:nonzero;stroke:rgb(16,134,76);stroke-width:1.21px;"/>
            </g>
            <g transform="matrix(5.555556,0,0,5.555556,4541.151667,1246.145)">
                <path d="M0,-21.917C-3.511,-21.917 -6.357,-19.071 -6.357,-15.56L-6.357,0" style="fill:none;fill-rule:nonzero;stroke:rgb(16,134,76);stroke-width:1.21px;"/>
            </g>
            <g transform="matrix(5.555556,0,0,5.555556,4592.277778,1124.384444)">
                <path d="M0,21.917C3.511,21.917 6.357,19.071 6.357,15.56L6.357,0" style="fill:none;fill-rule:nonzero;stroke:rgb(16,134,76);stroke-width:1.21px;"/>
            </g>
            <g transform="matrix(5.555556,0,0,5.555556,4315.643333,1246.145)">
                <path d="M0,-21.917C-3.511,-21.917 -6.357,-19.071 -6.357,-15.56L-6.357,0" style="fill:none;fill-rule:nonzero;stroke:rgb(16,134,76);stroke-width:1.21px;"/>
            </g>
            <g transform="matrix(5.555556,0,0,5.555556,4366.769444,1124.384444)">
                <path d="M0,21.917C3.511,21.917 6.357,19.071 6.357,15.56L6.357,0" style="fill:none;fill-rule:nonzero;stroke:rgb(16,134,76);stroke-width:1.21px;"/>
            </g>
            <g transform="matrix(5.555556,0,0,5.555556,4090.135,1246.145)">
                <path d="M0,-21.917C-3.511,-21.917 -6.357,-19.071 -6.357,-15.56L-6.357,0" style="fill:none;fill-rule:nonzero;stroke:rgb(16,134,76);stroke-width:1.21px;"/>
            </g>
            <g transform="matrix(5.555556,0,0,5.555556,4141.261111,1124.384444)">
                <path d="M0,21.917C3.511,21.917 6.357,19.071 6.357,15.56L6.357,0" style="fill:none;fill-rule:nonzero;stroke:rgb(16,134,76);stroke-width:1.21px;"/>
            </g>
            <g transform="matrix(5.555556,0,0,5.555556,5277.308333,1450.285)">
                <path d="M0,-21.917C-3.511,-21.917 -6.357,-19.071 -6.357,-15.56L-6.357,0" style="fill:none;fill-rule:nonzero;stroke:rgb(16,134,76);stroke-width:1.21px;"/>
            </g>
            <g transform="matrix(5.555556,0,0,5.555556,5328.434444,1328.524444)">
                <path d="M0,21.917C3.511,21.917 6.357,19.071 6.357,15.56L6.357,0" style="fill:none;fill-rule:nonzero;stroke:rgb(16,134,76);stroke-width:1.21px;"/>
            </g>
            <g transform="matrix(5.555556,0,0,5.555556,5051.8,1450.285)">
                <path d="M0,-21.917C-3.511,-21.917 -6.357,-19.071 -6.357,-15.56L-6.357,0" style="fill:none;fill-rule:nonzero;stroke:rgb(16,134,76);stroke-width:1.21px;"/>
            </g>
            <g transform="matrix(5.555556,0,0,5.555556,5102.926111,1328.524444)">
                <path d="M0,21.917C3.511,21.917 6.357,19.071 6.357,15.56L6.357,0" style="fill:none;fill-rule:nonzero;stroke:rgb(16,134,76);stroke-width:1.21px;"/>
            </g>
            <g transform="matrix(5.555556,0,0,5.555556,4827.540556,1450.285)">
                <path d="M0,-21.917C-3.511,-21.917 -6.357,-19.071 -6.357,-15.56L-6.357,0" style="fill:none;fill-rule:nonzero;stroke:rgb(16,134,76);stroke-width:1.21px;"/>
            </g>
            <g transform="matrix(5.555556,0,0,5.555556,4878.666667,1328.524444)">
                <path d="M0,21.917C3.511,21.917 6.357,19.071 6.357,15.56L6.357,0" style="fill:none;fill-rule:nonzero;stroke:rgb(16,134,76);stroke-width:1.21px;"/>
            </g>
            <g transform="matrix(5.555556,0,0,5.555556,4602.032222,1450.285)">
                <path d="M0,-21.917C-3.511,-21.917 -6.357,-19.071 -6.357,-15.56L-6.357,0" style="fill:none;fill-rule:nonzero;stroke:rgb(16,134,76);stroke-width:1.21px;"/>
            </g>
            <g transform="matrix(5.555556,0,0,5.555556,4653.158333,1328.524444)">
                <path d="M0,21.917C3.511,21.917 6.357,19.071 6.357,15.56L6.357,0" style="fill:none;fill-rule:nonzero;stroke:rgb(16,134,76);stroke-width:1.21px;"/>
            </g>
            <g transform="matrix(5.555556,0,0,5.555556,4376.524444,1450.285)">
                <path d="M0,-21.917C-3.511,-21.917 -6.357,-19.071 -6.357,-15.56L-6.357,0" style="fill:none;fill-rule:nonzero;stroke:rgb(16,134,76);stroke-width:1.21px;"/>
            </g>
            <g transform="matrix(5.555556,0,0,5.555556,4427.650556,1328.524444)">
                <path d="M0,21.917C3.511,21.917 6.357,19.071 6.357,15.56L6.357,0" style="fill:none;fill-rule:nonzero;stroke:rgb(16,134,76);stroke-width:1.21px;"/>
            </g>
            <g transform="matrix(5.555556,0,0,5.555556,4151.016111,1450.285)">
                <path d="M0,-21.917C-3.511,-21.917 -6.357,-19.071 -6.357,-15.56L-6.357,0" style="fill:none;fill-rule:nonzero;stroke:rgb(16,134,76);stroke-width:1.21px;"/>
            </g>
            <g transform="matrix(5.555556,0,0,5.555556,4202.142222,1328.524444)">
                <path d="M0,21.917C3.511,21.917 6.357,19.071 6.357,15.56L6.357,0" style="fill:none;fill-rule:nonzero;stroke:rgb(16,134,76);stroke-width:1.21px;"/>
            </g>
            <g transform="matrix(5.555556,0,0,5.555556,3972.668889,1328.524444)">
                <path d="M0,21.917C3.511,21.917 6.357,19.071 6.357,15.56L6.357,0" style="fill:none;fill-rule:nonzero;stroke:rgb(16,134,76);stroke-width:1.21px;"/>
            </g>
            <g transform="matrix(5.555556,0,0,5.555556,5216.427222,1405.276667)">
                <path d="M0,-21.917C-3.511,-21.917 -6.357,-19.071 -6.357,-15.56L-6.357,0" style="fill:none;fill-rule:nonzero;stroke:rgb(16,134,76);stroke-width:1.21px;"/>
            </g>
            <g transform="matrix(5.555556,0,0,5.555556,5267.553333,1283.516111)">
                <path d="M0,21.917C3.511,21.917 6.357,19.071 6.357,15.56L6.357,0" style="fill:none;fill-rule:nonzero;stroke:rgb(16,134,76);stroke-width:1.21px;"/>
            </g>
            <g transform="matrix(5.555556,0,0,5.555556,4990.918889,1405.276667)">
                <path d="M0,-21.917C-3.511,-21.917 -6.357,-19.071 -6.357,-15.56L-6.357,0" style="fill:none;fill-rule:nonzero;stroke:rgb(16,134,76);stroke-width:1.21px;"/>
            </g>
            <g transform="matrix(5.555556,0,0,5.555556,5042.045,1283.516111)">
                <path d="M0,21.917C3.511,21.917 6.357,19.071 6.357,15.56L6.357,0" style="fill:none;fill-rule:nonzero;stroke:rgb(16,134,76);stroke-width:1.21px;"/>
            </g>
            <g transform="matrix(5.555556,0,0,5.555556,4766.66,1405.276667)">
                <path d="M0,-21.917C-3.511,-21.917 -6.357,-19.071 -6.357,-15.56L-6.357,0" style="fill:none;fill-rule:nonzero;stroke:rgb(16,134,76);stroke-width:1.21px;"/>
            </g>
            <g transform="matrix(5.555556,0,0,5.555556,4817.786111,1283.516111)">
                <path d="M0,21.917C3.511,21.917 6.357,19.071 6.357,15.56L6.357,0" style="fill:none;fill-rule:nonzero;stroke:rgb(16,134,76);stroke-width:1.21px;"/>
            </g>
            <g transform="matrix(5.555556,0,0,5.555556,4541.151667,1405.276667)">
                <path d="M0,-21.917C-3.511,-21.917 -6.357,-19.071 -6.357,-15.56L-6.357,0" style="fill:none;fill-rule:nonzero;stroke:rgb(16,134,76);stroke-width:1.21px;"/>
            </g>
            <g transform="matrix(5.555556,0,0,5.555556,4592.277778,1283.516111)">
                <path d="M0,21.917C3.511,21.917 6.357,19.071 6.357,15.56L6.357,0" style="fill:none;fill-rule:nonzero;stroke:rgb(16,134,76);stroke-width:1.21px;"/>
            </g>
            <g transform="matrix(5.555556,0,0,5.555556,4315.643333,1405.276667)">
                <path d="M0,-21.917C-3.511,-21.917 -6.357,-19.071 -6.357,-15.56L-6.357,0" style="fill:none;fill-rule:nonzero;stroke:rgb(16,134,76);stroke-width:1.21px;"/>
            </g>
            <g transform="matrix(5.555556,0,0,5.555556,4366.769444,1283.516111)">
                <path d="M0,21.917C3.511,21.917 6.357,19.071 6.357,15.56L6.357,0" style="fill:none;fill-rule:nonzero;stroke:rgb(16,134,76);stroke-width:1.21px;"/>
            </g>
            <g transform="matrix(5.555556,0,0,5.555556,4090.135,1405.276667)">
                <path d="M0,-21.917C-3.511,-21.917 -6.357,-19.071 -6.357,-15.56L-6.357,0" style="fill:none;fill-rule:nonzero;stroke:rgb(16,134,76);stroke-width:1.21px;"/>
            </g>
            <g transform="matrix(5.555556,0,0,5.555556,4141.261111,1283.516111)">
                <path d="M0,21.917C3.511,21.917 6.357,19.071 6.357,15.56L6.357,0" style="fill:none;fill-rule:nonzero;stroke:rgb(16,134,76);stroke-width:1.21px;"/>
            </g>
            <g transform="matrix(5.555556,0,0,5.555556,5277.308333,1609.416667)">
                <path d="M0,-21.917C-3.511,-21.917 -6.357,-19.071 -6.357,-15.56L-6.357,0" style="fill:none;fill-rule:nonzero;stroke:rgb(16,134,76);stroke-width:1.21px;"/>
            </g>
            <g transform="matrix(5.555556,0,0,5.555556,5328.434444,1487.655556)">
                <path d="M0,21.917C3.511,21.917 6.357,19.071 6.357,15.56L6.357,0" style="fill:none;fill-rule:nonzero;stroke:rgb(16,134,76);stroke-width:1.21px;"/>
            </g>
            <g transform="matrix(5.555556,0,0,5.555556,5051.8,1609.416667)">
                <path d="M0,-21.917C-3.511,-21.917 -6.357,-19.071 -6.357,-15.56L-6.357,0" style="fill:none;fill-rule:nonzero;stroke:rgb(16,134,76);stroke-width:1.21px;"/>
            </g>
            <g transform="matrix(5.555556,0,0,5.555556,5102.926111,1487.655556)">
                <path d="M0,21.917C3.511,21.917 6.357,19.071 6.357,15.56L6.357,0" style="fill:none;fill-rule:nonzero;stroke:rgb(16,134,76);stroke-width:1.21px;"/>
            </g>
            <g transform="matrix(5.555556,0,0,5.555556,4827.540556,1609.416667)">
                <path d="M0,-21.917C-3.511,-21.917 -6.357,-19.071 -6.357,-15.56L-6.357,0" style="fill:none;fill-rule:nonzero;stroke:rgb(16,134,76);stroke-width:1.21px;"/>
            </g>
            <g transform="matrix(5.555556,0,0,5.555556,4878.666667,1487.655556)">
                <path d="M0,21.917C3.511,21.917 6.357,19.071 6.357,15.56L6.357,0" style="fill:none;fill-rule:nonzero;stroke:rgb(16,134,76);stroke-width:1.21px;"/>
            </g>
            <g transform="matrix(5.555556,0,0,5.555556,4602.032222,1609.416667)">
                <path d="M0,-21.917C-3.511,-21.917 -6.357,-19.071 -6.357,-15.56L-6.357,0" style="fill:none;fill-rule:nonzero;stroke:rgb(16,134,76);stroke-width:1.21px;"/>
            </g>
            <g transform="matrix(5.555556,0,0,5.555556,4653.158333,1487.655556)">
                <path d="M0,21.917C3.511,21.917 6.357,19.071 6.357,15.56L6.357,0" style="fill:none;fill-rule:nonzero;stroke:rgb(16,134,76);stroke-width:1.21px;"/>
            </g>
            <g transform="matrix(5.555556,0,0,5.555556,4376.524444,1609.416667)">
                <path d="M0,-21.917C-3.511,-21.917 -6.357,-19.071 -6.357,-15.56L-6.357,0" style="fill:none;fill-rule:nonzero;stroke:rgb(16,134,76);stroke-width:1.21px;"/>
            </g>
            <g transform="matrix(5.555556,0,0,5.555556,4427.650556,1487.655556)">
                <path d="M0,21.917C3.511,21.917 6.357,19.071 6.357,15.56L6.357,0" style="fill:none;fill-rule:nonzero;stroke:rgb(16,134,76);stroke-width:1.21px;"/>
            </g>
            <g transform="matrix(5.555556,0,0,5.555556,4151.016111,1609.416667)">
                <path d="M0,-21.917C-3.511,-21.917 -6.357,-19.071 -6.357,-15.56L-6.357,0" style="fill:none;fill-rule:nonzero;stroke:rgb(16,134,76);stroke-width:1.21px;"/>
            </g>
            <g transform="matrix(5.555556,0,0,5.555556,4202.142222,1487.655556)">
                <path d="M0,21.917C3.511,21.917 6.357,19.071 6.357,15.56L6.357,0" style="fill:none;fill-rule:nonzero;stroke:rgb(16,134,76);stroke-width:1.21px;"/>
            </g>
            <g transform="matrix(5.555556,0,0,5.555556,3972.668889,1487.655556)">
                <path d="M0,21.917C3.511,21.917 6.357,19.071 6.357,15.56L6.357,0" style="fill:none;fill-rule:nonzero;stroke:rgb(16,134,76);stroke-width:1.21px;"/>
            </g>
            <g transform="matrix(5.555556,0,0,5.555556,5216.427222,1564.408333)">
                <path d="M0,-21.917C-3.511,-21.917 -6.357,-19.071 -6.357,-15.56L-6.357,0" style="fill:none;fill-rule:nonzero;stroke:rgb(16,134,76);stroke-width:1.21px;"/>
            </g>
            <g transform="matrix(5.555556,0,0,5.555556,5267.553333,1442.647778)">
                <path d="M0,21.917C3.511,21.917 6.357,19.071 6.357,15.56L6.357,0" style="fill:none;fill-rule:nonzero;stroke:rgb(16,134,76);stroke-width:1.21px;"/>
            </g>
            <g transform="matrix(5.555556,0,0,5.555556,4990.918889,1564.408333)">
                <path d="M0,-21.917C-3.511,-21.917 -6.357,-19.071 -6.357,-15.56L-6.357,0" style="fill:none;fill-rule:nonzero;stroke:rgb(16,134,76);stroke-width:1.21px;"/>
            </g>
            <g transform="matrix(5.555556,0,0,5.555556,5042.045,1442.647778)">
                <path d="M0,21.917C3.511,21.917 6.357,19.071 6.357,15.56L6.357,0" style="fill:none;fill-rule:nonzero;stroke:rgb(16,134,76);stroke-width:1.21px;"/>
            </g>
            <g transform="matrix(5.555556,0,0,5.555556,4766.66,1564.408333)">
                <path d="M0,-21.917C-3.511,-21.917 -6.357,-19.071 -6.357,-15.56L-6.357,0" style="fill:none;fill-rule:nonzero;stroke:rgb(16,134,76);stroke-width:1.21px;"/>
            </g>
            <g transform="matrix(5.555556,0,0,5.555556,4817.786111,1442.647778)">
                <path d="M0,21.917C3.511,21.917 6.357,19.071 6.357,15.56L6.357,0" style="fill:none;fill-rule:nonzero;stroke:rgb(16,134,76);stroke-width:1.21px;"/>
            </g>
            <g transform="matrix(5.555556,0,0,5.555556,4541.151667,1564.408333)">
                <path d="M0,-21.917C-3.511,-21.917 -6.357,-19.071 -6.357,-15.56L-6.357,0" style="fill:none;fill-rule:nonzero;stroke:rgb(16,134,76);stroke-width:1.21px;"/>
            </g>
            <g transform="matrix(5.555556,0,0,5.555556,4592.277778,1442.647778)">
                <path d="M0,21.917C3.511,21.917 6.357,19.071 6.357,15.56L6.357,0" style="fill:none;fill-rule:nonzero;stroke:rgb(16,134,76);stroke-width:1.21px;"/>
            </g>
            <g transform="matrix(5.555556,0,0,5.555556,4315.643333,1564.408333)">
                <path d="M0,-21.917C-3.511,-21.917 -6.357,-19.071 -6.357,-15.56L-6.357,0" style="fill:none;fill-rule:nonzero;stroke:rgb(16,134,76);stroke-width:1.21px;"/>
            </g>
            <g transform="matrix(5.555556,0,0,5.555556,4366.769444,1442.647778)">
                <path d="M0,21.917C3.511,21.917 6.357,19.071 6.357,15.56L6.357,0" style="fill:none;fill-rule:nonzero;stroke:rgb(16,134,76);stroke-width:1.21px;"/>
            </g>
            <g transform="matrix(5.555556,0,0,5.555556,4090.135,1564.408333)">
                <path d="M0,-21.917C-3.511,-21.917 -6.357,-19.071 -6.357,-15.56L-6.357,0" style="fill:none;fill-rule:nonzero;stroke:rgb(16,134,76);stroke-width:1.21px;"/>
            </g>
            <g transform="matrix(5.555556,0,0,5.555556,4141.261111,1442.647778)">
                <path d="M0,21.917C3.511,21.917 6.357,19.071 6.357,15.56L6.357,0" style="fill:none;fill-rule:nonzero;stroke:rgb(16,134,76);stroke-width:1.21px;"/>
            </g>
            <g transform="matrix(5.555556,0,0,5.555556,5277.308333,1768.548333)">
                <path d="M0,-21.917C-3.511,-21.917 -6.357,-19.071 -6.357,-15.56L-6.357,0" style="fill:none;fill-rule:nonzero;stroke:rgb(16,134,76);stroke-width:1.21px;"/>
            </g>
            <g transform="matrix(5.555556,0,0,5.555556,5328.434444,1646.787222)">
                <path d="M0,21.917C3.511,21.917 6.357,19.071 6.357,15.56L6.357,0" style="fill:none;fill-rule:nonzero;stroke:rgb(16,134,76);stroke-width:1.21px;"/>
            </g>
            <g transform="matrix(5.555556,0,0,5.555556,5051.8,1768.548333)">
                <path d="M0,-21.917C-3.511,-21.917 -6.357,-19.071 -6.357,-15.56L-6.357,0" style="fill:none;fill-rule:nonzero;stroke:rgb(16,134,76);stroke-width:1.21px;"/>
            </g>
            <g transform="matrix(5.555556,0,0,5.555556,5102.926111,1646.787222)">
                <path d="M0,21.917C3.511,21.917 6.357,19.071 6.357,15.56L6.357,0" style="fill:none;fill-rule:nonzero;stroke:rgb(16,134,76);stroke-width:1.21px;"/>
            </g>
            <g transform="matrix(5.555556,0,0,5.555556,4827.540556,1768.548333)">
                <path d="M0,-21.917C-3.511,-21.917 -6.357,-19.071 -6.357,-15.56L-6.357,0" style="fill:none;fill-rule:nonzero;stroke:rgb(16,134,76);stroke-width:1.21px;"/>
            </g>
            <g transform="matrix(5.555556,0,0,5.555556,4878.666667,1646.787222)">
                <path d="M0,21.917C3.511,21.917 6.357,19.071 6.357,15.56L6.357,0" style="fill:none;fill-rule:nonzero;stroke:rgb(16,134,76);stroke-width:1.21px;"/>
            </g>
            <g transform="matrix(5.555556,0,0,5.555556,4602.032222,1768.548333)">
                <path d="M0,-21.917C-3.511,-21.917 -6.357,-19.071 -6.357,-15.56L-6.357,0" style="fill:none;fill-rule:nonzero;stroke:rgb(16,134,76);stroke-width:1.21px;"/>
            </g>
            <g transform="matrix(5.555556,0,0,5.555556,4653.158333,1646.787222)">
                <path d="M0,21.917C3.511,21.917 6.357,19.071 6.357,15.56L6.357,0" style="fill:none;fill-rule:nonzero;stroke:rgb(16,134,76);stroke-width:1.21px;"/>
            </g>
            <g transform="matrix(5.555556,0,0,5.555556,4376.524444,1768.548333)">
                <path d="M0,-21.917C-3.511,-21.917 -6.357,-19.071 -6.357,-15.56L-6.357,0" style="fill:none;fill-rule:nonzero;stroke:rgb(16,134,76);stroke-width:1.21px;"/>
            </g>
            <g transform="matrix(5.555556,0,0,5.555556,4427.650556,1646.787222)">
                <path d="M0,21.917C3.511,21.917 6.357,19.071 6.357,15.56L6.357,0" style="fill:none;fill-rule:nonzero;stroke:rgb(16,134,76);stroke-width:1.21px;"/>
            </g>
            <g transform="matrix(5.555556,0,0,5.555556,4151.016111,1768.548333)">
                <path d="M0,-21.917C-3.511,-21.917 -6.357,-19.071 -6.357,-15.56L-6.357,0" style="fill:none;fill-rule:nonzero;stroke:rgb(16,134,76);stroke-width:1.21px;"/>
            </g>
            <g transform="matrix(5.555556,0,0,5.555556,4202.142222,1646.787222)">
                <path d="M0,21.917C3.511,21.917 6.357,19.071 6.357,15.56L6.357,0" style="fill:none;fill-rule:nonzero;stroke:rgb(16,134,76);stroke-width:1.21px;"/>
            </g>
            <g transform="matrix(5.555556,0,0,5.555556,3972.668889,1646.787222)">
                <path d="M0,21.917C3.511,21.917 6.357,19.071 6.357,15.56L6.357,0" style="fill:none;fill-rule:nonzero;stroke:rgb(16,134,76);stroke-width:1.21px;"/>
            </g>
            <g transform="matrix(5.555556,0,0,5.555556,5216.427222,1723.54)">
                <path d="M0,-21.917C-3.511,-21.917 -6.357,-19.071 -6.357,-15.56L-6.357,0" style="fill:none;fill-rule:nonzero;stroke:rgb(16,134,76);stroke-width:1.21px;"/>
            </g>
            <g transform="matrix(5.555556,0,0,5.555556,5267.553333,1601.779444)">
                <path d="M0,21.917C3.511,21.917 6.357,19.071 6.357,15.56L6.357,0" style="fill:none;fill-rule:nonzero;stroke:rgb(16,134,76);stroke-width:1.21px;"/>
            </g>
            <g transform="matrix(5.555556,0,0,5.555556,4990.918889,1723.54)">
                <path d="M0,-21.917C-3.511,-21.917 -6.357,-19.071 -6.357,-15.56L-6.357,0" style="fill:none;fill-rule:nonzero;stroke:rgb(16,134,76);stroke-width:1.21px;"/>
            </g>
            <g transform="matrix(5.555556,0,0,5.555556,5042.045,1601.779444)">
                <path d="M0,21.917C3.511,21.917 6.357,19.071 6.357,15.56L6.357,0" style="fill:none;fill-rule:nonzero;stroke:rgb(16,134,76);stroke-width:1.21px;"/>
            </g>
            <g transform="matrix(5.555556,0,0,5.555556,4766.66,1723.54)">
                <path d="M0,-21.917C-3.511,-21.917 -6.357,-19.071 -6.357,-15.56L-6.357,0" style="fill:none;fill-rule:nonzero;stroke:rgb(16,134,76);stroke-width:1.21px;"/>
            </g>
            <g transform="matrix(5.555556,0,0,5.555556,4817.786111,1601.779444)">
                <path d="M0,21.917C3.511,21.917 6.357,19.071 6.357,15.56L6.357,0" style="fill:none;fill-rule:nonzero;stroke:rgb(16,134,76);stroke-width:1.21px;"/>
            </g>
            <g transform="matrix(5.555556,0,0,5.555556,4541.151667,1723.54)">
                <path d="M0,-21.917C-3.511,-21.917 -6.357,-19.071 -6.357,-15.56L-6.357,0" style="fill:none;fill-rule:nonzero;stroke:rgb(16,134,76);stroke-width:1.21px;"/>
            </g>
            <g transform="matrix(5.555556,0,0,5.555556,4592.277778,1601.779444)">
                <path d="M0,21.917C3.511,21.917 6.357,19.071 6.357,15.56L6.357,0" style="fill:none;fill-rule:nonzero;stroke:rgb(16,134,76);stroke-width:1.21px;"/>
            </g>
            <g transform="matrix(5.555556,0,0,5.555556,4315.643333,1723.54)">
                <path d="M0,-21.917C-3.511,-21.917 -6.357,-19.071 -6.357,-15.56L-6.357,0" style="fill:none;fill-rule:nonzero;stroke:rgb(16,134,76);stroke-width:1.21px;"/>
            </g>
            <g transform="matrix(5.555556,0,0,5.555556,4366.769444,1601.779444)">
                <path d="M0,21.917C3.511,21.917 6.357,19.071 6.357,15.56L6.357,0" style="fill:none;fill-rule:nonzero;stroke:rgb(16,134,76);stroke-width:1.21px;"/>
            </g>
            <g transform="matrix(5.555556,0,0,5.555556,4090.135,1723.54)">
                <path d="M0,-21.917C-3.511,-21.917 -6.357,-19.071 -6.357,-15.56L-6.357,0" style="fill:none;fill-rule:nonzero;stroke:rgb(16,134,76);stroke-width:1.21px;"/>
            </g>
            <g transform="matrix(5.555556,0,0,5.555556,4141.261111,1601.779444)">
                <path d="M0,21.917C3.511,21.917 6.357,19.071 6.357,15.56L6.357,0" style="fill:none;fill-rule:nonzero;stroke:rgb(16,134,76);stroke-width:1.21px;"/>
            </g>
            <g transform="matrix(5.555556,0,0,5.555556,5277.308333,1933.647222)">
                <path d="M0,-21.917C-3.511,-21.917 -6.357,-19.071 -6.357,-15.56L-6.357,0" style="fill:none;fill-rule:nonzero;stroke:rgb(16,134,76);stroke-width:1.21px;"/>
            </g>
            <g transform="matrix(5.555556,0,0,5.555556,5328.434444,1811.886667)">
                <path d="M0,21.917C3.511,21.917 6.357,19.071 6.357,15.56L6.357,0" style="fill:none;fill-rule:nonzero;stroke:rgb(16,134,76);stroke-width:1.21px;"/>
            </g>
            <g transform="matrix(5.555556,0,0,5.555556,5051.8,1933.647222)">
                <path d="M0,-21.917C-3.511,-21.917 -6.357,-19.071 -6.357,-15.56L-6.357,0" style="fill:none;fill-rule:nonzero;stroke:rgb(16,134,76);stroke-width:1.21px;"/>
            </g>
            <g transform="matrix(5.555556,0,0,5.555556,5102.926111,1811.886667)">
                <path d="M0,21.917C3.511,21.917 6.357,19.071 6.357,15.56L6.357,0" style="fill:none;fill-rule:nonzero;stroke:rgb(16,134,76);stroke-width:1.21px;"/>
            </g>
            <g transform="matrix(5.555556,0,0,5.555556,4827.540556,1933.647222)">
                <path d="M0,-21.917C-3.511,-21.917 -6.357,-19.071 -6.357,-15.56L-6.357,0" style="fill:none;fill-rule:nonzero;stroke:rgb(16,134,76);stroke-width:1.21px;"/>
            </g>
            <g transform="matrix(5.555556,0,0,5.555556,4878.666667,1811.886667)">
                <path d="M0,21.917C3.511,21.917 6.357,19.071 6.357,15.56L6.357,0" style="fill:none;fill-rule:nonzero;stroke:rgb(16,134,76);stroke-width:1.21px;"/>
            </g>
            <g transform="matrix(5.555556,0,0,5.555556,4602.032222,1933.647222)">
                <path d="M0,-21.917C-3.511,-21.917 -6.357,-19.071 -6.357,-15.56L-6.357,0" style="fill:none;fill-rule:nonzero;stroke:rgb(16,134,76);stroke-width:1.21px;"/>
            </g>
            <g transform="matrix(5.555556,0,0,5.555556,4653.158333,1811.886667)">
                <path d="M0,21.917C3.511,21.917 6.357,19.071 6.357,15.56L6.357,0" style="fill:none;fill-rule:nonzero;stroke:rgb(16,134,76);stroke-width:1.21px;"/>
            </g>
            <g transform="matrix(5.555556,0,0,5.555556,4376.524444,1933.647222)">
                <path d="M0,-21.917C-3.511,-21.917 -6.357,-19.071 -6.357,-15.56L-6.357,0" style="fill:none;fill-rule:nonzero;stroke:rgb(16,134,76);stroke-width:1.21px;"/>
            </g>
            <g transform="matrix(5.555556,0,0,5.555556,4427.650556,1811.886667)">
                <path d="M0,21.917C3.511,21.917 6.357,19.071 6.357,15.56L6.357,0" style="fill:none;fill-rule:nonzero;stroke:rgb(16,134,76);stroke-width:1.21px;"/>
            </g>
            <g transform="matrix(5.555556,0,0,5.555556,4151.016111,1933.647222)">
                <path d="M0,-21.917C-3.511,-21.917 -6.357,-19.071 -6.357,-15.56L-6.357,0" style="fill:none;fill-rule:nonzero;stroke:rgb(16,134,76);stroke-width:1.21px;"/>
            </g>
            <g transform="matrix(5.555556,0,0,5.555556,4202.142222,1811.886667)">
                <path d="M0,21.917C3.511,21.917 6.357,19.071 6.357,15.56L6.357,0" style="fill:none;fill-rule:nonzero;stroke:rgb(16,134,76);stroke-width:1.21px;"/>
            </g>
            <g transform="matrix(5.555556,0,0,5.555556,3972.668889,1811.886667)">
                <path d="M0,21.917C3.511,21.917 6.357,19.071 6.357,15.56L6.357,0" style="fill:none;fill-rule:nonzero;stroke:rgb(16,134,76);stroke-width:1.21px;"/>
            </g>
            <g transform="matrix(5.555556,0,0,5.555556,5216.427222,1888.638889)">
                <path d="M0,-21.917C-3.511,-21.917 -6.357,-19.071 -6.357,-15.56L-6.357,0" style="fill:none;fill-rule:nonzero;stroke:rgb(16,134,76);stroke-width:1.21px;"/>
            </g>
            <g transform="matrix(5.555556,0,0,5.555556,5267.553333,1766.878333)">
                <path d="M0,21.917C3.511,21.917 6.357,19.071 6.357,15.56L6.357,0" style="fill:none;fill-rule:nonzero;stroke:rgb(16,134,76);stroke-width:1.21px;"/>
            </g>
            <g transform="matrix(5.555556,0,0,5.555556,4990.918889,1888.638889)">
                <path d="M0,-21.917C-3.511,-21.917 -6.357,-19.071 -6.357,-15.56L-6.357,0" style="fill:none;fill-rule:nonzero;stroke:rgb(16,134,76);stroke-width:1.21px;"/>
            </g>
            <g transform="matrix(5.555556,0,0,5.555556,5042.045,1766.878333)">
                <path d="M0,21.917C3.511,21.917 6.357,19.071 6.357,15.56L6.357,0" style="fill:none;fill-rule:nonzero;stroke:rgb(16,134,76);stroke-width:1.21px;"/>
            </g>
            <g transform="matrix(5.555556,0,0,5.555556,4766.66,1888.638889)">
                <path d="M0,-21.917C-3.511,-21.917 -6.357,-19.071 -6.357,-15.56L-6.357,0" style="fill:none;fill-rule:nonzero;stroke:rgb(16,134,76);stroke-width:1.21px;"/>
            </g>
            <g transform="matrix(5.555556,0,0,5.555556,4817.786111,1766.878333)">
                <path d="M0,21.917C3.511,21.917 6.357,19.071 6.357,15.56L6.357,0" style="fill:none;fill-rule:nonzero;stroke:rgb(16,134,76);stroke-width:1.21px;"/>
            </g>
            <g transform="matrix(5.555556,0,0,5.555556,4541.151667,1888.638889)">
                <path d="M0,-21.917C-3.511,-21.917 -6.357,-19.071 -6.357,-15.56L-6.357,0" style="fill:none;fill-rule:nonzero;stroke:rgb(16,134,76);stroke-width:1.21px;"/>
            </g>
            <g transform="matrix(5.555556,0,0,5.555556,4592.277778,1766.878333)">
                <path d="M0,21.917C3.511,21.917 6.357,19.071 6.357,15.56L6.357,0" style="fill:none;fill-rule:nonzero;stroke:rgb(16,134,76);stroke-width:1.21px;"/>
            </g>
            <g transform="matrix(5.555556,0,0,5.555556,4315.643333,1888.638889)">
                <path d="M0,-21.917C-3.511,-21.917 -6.357,-19.071 -6.357,-15.56L-6.357,0" style="fill:none;fill-rule:nonzero;stroke:rgb(16,134,76);stroke-width:1.21px;"/>
            </g>
            <g transform="matrix(5.555556,0,0,5.555556,4366.769444,1766.878333)">
                <path d="M0,21.917C3.511,21.917 6.357,19.071 6.357,15.56L6.357,0" style="fill:none;fill-rule:nonzero;stroke:rgb(16,134,76);stroke-width:1.21px;"/>
            </g>
            <g transform="matrix(5.555556,0,0,5.555556,4090.135,1888.638889)">
                <path d="M0,-21.917C-3.511,-21.917 -6.357,-19.071 -6.357,-15.56L-6.357,0" style="fill:none;fill-rule:nonzero;stroke:rgb(16,134,76);stroke-width:1.21px;"/>
            </g>
            <g transform="matrix(5.555556,0,0,5.555556,4141.261111,1766.878333)">
                <path d="M0,21.917C3.511,21.917 6.357,19.071 6.357,15.56L6.357,0" style="fill:none;fill-rule:nonzero;stroke:rgb(16,134,76);stroke-width:1.21px;"/>
            </g>
            <g transform="matrix(5.555556,0,0,5.555556,5277.308333,2092.778889)">
                <path d="M0,-21.917C-3.511,-21.917 -6.357,-19.071 -6.357,-15.56L-6.357,0" style="fill:none;fill-rule:nonzero;stroke:rgb(16,134,76);stroke-width:1.21px;"/>
            </g>
            <g transform="matrix(5.555556,0,0,5.555556,5328.434444,1971.018333)">
                <path d="M0,21.917C3.511,21.917 6.357,19.071 6.357,15.56L6.357,0" style="fill:none;fill-rule:nonzero;stroke:rgb(16,134,76);stroke-width:1.21px;"/>
            </g>
            <g transform="matrix(5.555556,0,0,5.555556,5051.8,2092.778889)">
                <path d="M0,-21.917C-3.511,-21.917 -6.357,-19.071 -6.357,-15.56L-6.357,0" style="fill:none;fill-rule:nonzero;stroke:rgb(16,134,76);stroke-width:1.21px;"/>
            </g>
            <g transform="matrix(5.555556,0,0,5.555556,5102.926111,1971.018333)">
                <path d="M0,21.917C3.511,21.917 6.357,19.071 6.357,15.56L6.357,0" style="fill:none;fill-rule:nonzero;stroke:rgb(16,134,76);stroke-width:1.21px;"/>
            </g>
            <g transform="matrix(5.555556,0,0,5.555556,4827.540556,2092.778889)">
                <path d="M0,-21.917C-3.511,-21.917 -6.357,-19.071 -6.357,-15.56L-6.357,0" style="fill:none;fill-rule:nonzero;stroke:rgb(16,134,76);stroke-width:1.21px;"/>
            </g>
            <g transform="matrix(5.555556,0,0,5.555556,4878.666667,1971.018333)">
                <path d="M0,21.917C3.511,21.917 6.357,19.071 6.357,15.56L6.357,0" style="fill:none;fill-rule:nonzero;stroke:rgb(16,134,76);stroke-width:1.21px;"/>
            </g>
            <g transform="matrix(5.555556,0,0,5.555556,4602.032222,2092.778889)">
                <path d="M0,-21.917C-3.511,-21.917 -6.357,-19.071 -6.357,-15.56L-6.357,0" style="fill:none;fill-rule:nonzero;stroke:rgb(16,134,76);stroke-width:1.21px;"/>
            </g>
            <g transform="matrix(5.555556,0,0,5.555556,4653.158333,1971.018333)">
                <path d="M0,21.917C3.511,21.917 6.357,19.071 6.357,15.56L6.357,0" style="fill:none;fill-rule:nonzero;stroke:rgb(16,134,76);stroke-width:1.21px;"/>
            </g>
            <g transform="matrix(5.555556,0,0,5.555556,4376.524444,2092.778889)">
                <path d="M0,-21.917C-3.511,-21.917 -6.357,-19.071 -6.357,-15.56L-6.357,0" style="fill:none;fill-rule:nonzero;stroke:rgb(16,134,76);stroke-width:1.21px;"/>
            </g>
            <g transform="matrix(5.555556,0,0,5.555556,4427.650556,1971.018333)">
                <path d="M0,21.917C3.511,21.917 6.357,19.071 6.357,15.56L6.357,0" style="fill:none;fill-rule:nonzero;stroke:rgb(16,134,76);stroke-width:1.21px;"/>
            </g>
            <g transform="matrix(5.555556,0,0,5.555556,4151.016111,2092.778889)">
                <path d="M0,-21.917C-3.511,-21.917 -6.357,-19.071 -6.357,-15.56L-6.357,0" style="fill:none;fill-rule:nonzero;stroke:rgb(16,134,76);stroke-width:1.21px;"/>
            </g>
            <g transform="matrix(5.555556,0,0,5.555556,4202.142222,1971.018333)">
                <path d="M0,21.917C3.511,21.917 6.357,19.071 6.357,15.56L6.357,0" style="fill:none;fill-rule:nonzero;stroke:rgb(16,134,76);stroke-width:1.21px;"/>
            </g>
            <g transform="matrix(5.555556,0,0,5.555556,3972.668889,1971.018333)">
                <path d="M0,21.917C3.511,21.917 6.357,19.071 6.357,15.56L6.357,0" style="fill:none;fill-rule:nonzero;stroke:rgb(16,134,76);stroke-width:1.21px;"/>
            </g>
            <g transform="matrix(5.555556,0,0,5.555556,5216.427222,2047.770556)">
                <path d="M0,-21.917C-3.511,-21.917 -6.357,-19.071 -6.357,-15.56L-6.357,0" style="fill:none;fill-rule:nonzero;stroke:rgb(16,134,76);stroke-width:1.21px;"/>
            </g>
            <g transform="matrix(5.555556,0,0,5.555556,5267.553333,1926.01)">
                <path d="M0,21.917C3.511,21.917 6.357,19.071 6.357,15.56L6.357,0" style="fill:none;fill-rule:nonzero;stroke:rgb(16,134,76);stroke-width:1.21px;"/>
            </g>
            <g transform="matrix(5.555556,0,0,5.555556,4990.918889,2047.770556)">
                <path d="M0,-21.917C-3.511,-21.917 -6.357,-19.071 -6.357,-15.56L-6.357,0" style="fill:none;fill-rule:nonzero;stroke:rgb(16,134,76);stroke-width:1.21px;"/>
            </g>
            <g transform="matrix(5.555556,0,0,5.555556,5042.045,1926.01)">
                <path d="M0,21.917C3.511,21.917 6.357,19.071 6.357,15.56L6.357,0" style="fill:none;fill-rule:nonzero;stroke:rgb(16,134,76);stroke-width:1.21px;"/>
            </g>
            <g transform="matrix(5.555556,0,0,5.555556,4766.66,2047.770556)">
                <path d="M0,-21.917C-3.511,-21.917 -6.357,-19.071 -6.357,-15.56L-6.357,0" style="fill:none;fill-rule:nonzero;stroke:rgb(16,134,76);stroke-width:1.21px;"/>
            </g>
            <g transform="matrix(5.555556,0,0,5.555556,4817.786111,1926.01)">
                <path d="M0,21.917C3.511,21.917 6.357,19.071 6.357,15.56L6.357,0" style="fill:none;fill-rule:nonzero;stroke:rgb(16,134,76);stroke-width:1.21px;"/>
            </g>
            <g transform="matrix(5.555556,0,0,5.555556,4541.151667,2047.770556)">
                <path d="M0,-21.917C-3.511,-21.917 -6.357,-19.071 -6.357,-15.56L-6.357,0" style="fill:none;fill-rule:nonzero;stroke:rgb(16,134,76);stroke-width:1.21px;"/>
            </g>
            <g transform="matrix(5.555556,0,0,5.555556,4592.277778,1926.01)">
                <path d="M0,21.917C3.511,21.917 6.357,19.071 6.357,15.56L6.357,0" style="fill:none;fill-rule:nonzero;stroke:rgb(16,134,76);stroke-width:1.21px;"/>
            </g>
            <g transform="matrix(5.555556,0,0,5.555556,4315.643333,2047.770556)">
                <path d="M0,-21.917C-3.511,-21.917 -6.357,-19.071 -6.357,-15.56L-6.357,0" style="fill:none;fill-rule:nonzero;stroke:rgb(16,134,76);stroke-width:1.21px;"/>
            </g>
            <g transform="matrix(5.555556,0,0,5.555556,4366.769444,1926.01)">
                <path d="M0,21.917C3.511,21.917 6.357,19.071 6.357,15.56L6.357,0" style="fill:none;fill-rule:nonzero;stroke:rgb(16,134,76);stroke-width:1.21px;"/>
            </g>
            <g transform="matrix(5.555556,0,0,5.555556,4090.135,2047.770556)">
                <path d="M0,-21.917C-3.511,-21.917 -6.357,-19.071 -6.357,-15.56L-6.357,0" style="fill:none;fill-rule:nonzero;stroke:rgb(16,134,76);stroke-width:1.21px;"/>
            </g>
            <g transform="matrix(5.555556,0,0,5.555556,4141.261111,1926.01)">
                <path d="M0,21.917C3.511,21.917 6.357,19.071 6.357,15.56L6.357,0" style="fill:none;fill-rule:nonzero;stroke:rgb(16,134,76);stroke-width:1.21px;"/>
            </g>
            <g transform="matrix(5.555556,0,0,5.555556,5277.308333,2251.910556)">
                <path d="M0,-21.917C-3.511,-21.917 -6.357,-19.071 -6.357,-15.56L-6.357,0" style="fill:none;fill-rule:nonzero;stroke:rgb(16,134,76);stroke-width:1.21px;"/>
            </g>
            <g transform="matrix(5.555556,0,0,5.555556,5328.434444,2130.15)">
                <path d="M0,21.917C3.511,21.917 6.357,19.071 6.357,15.56L6.357,0" style="fill:none;fill-rule:nonzero;stroke:rgb(16,134,76);stroke-width:1.21px;"/>
            </g>
            <g transform="matrix(5.555556,0,0,5.555556,5051.8,2251.910556)">
                <path d="M0,-21.917C-3.511,-21.917 -6.357,-19.071 -6.357,-15.56L-6.357,0" style="fill:none;fill-rule:nonzero;stroke:rgb(16,134,76);stroke-width:1.21px;"/>
            </g>
            <g transform="matrix(5.555556,0,0,5.555556,5102.926111,2130.15)">
                <path d="M0,21.917C3.511,21.917 6.357,19.071 6.357,15.56L6.357,0" style="fill:none;fill-rule:nonzero;stroke:rgb(16,134,76);stroke-width:1.21px;"/>
            </g>
            <g transform="matrix(5.555556,0,0,5.555556,4827.540556,2251.910556)">
                <path d="M0,-21.917C-3.511,-21.917 -6.357,-19.071 -6.357,-15.56L-6.357,0" style="fill:none;fill-rule:nonzero;stroke:rgb(16,134,76);stroke-width:1.21px;"/>
            </g>
            <g transform="matrix(5.555556,0,0,5.555556,4878.666667,2130.15)">
                <path d="M0,21.917C3.511,21.917 6.357,19.071 6.357,15.56L6.357,0" style="fill:none;fill-rule:nonzero;stroke:rgb(16,134,76);stroke-width:1.21px;"/>
            </g>
            <g transform="matrix(5.555556,0,0,5.555556,4602.032222,2251.910556)">
                <path d="M0,-21.917C-3.511,-21.917 -6.357,-19.071 -6.357,-15.56L-6.357,0" style="fill:none;fill-rule:nonzero;stroke:rgb(16,134,76);stroke-width:1.21px;"/>
            </g>
            <g transform="matrix(5.555556,0,0,5.555556,4653.158333,2130.15)">
                <path d="M0,21.917C3.511,21.917 6.357,19.071 6.357,15.56L6.357,0" style="fill:none;fill-rule:nonzero;stroke:rgb(16,134,76);stroke-width:1.21px;"/>
            </g>
            <g transform="matrix(5.555556,0,0,5.555556,4376.524444,2251.910556)">
                <path d="M0,-21.917C-3.511,-21.917 -6.357,-19.071 -6.357,-15.56L-6.357,0" style="fill:none;fill-rule:nonzero;stroke:rgb(16,134,76);stroke-width:1.21px;"/>
            </g>
            <g transform="matrix(5.555556,0,0,5.555556,4427.650556,2130.15)">
                <path d="M0,21.917C3.511,21.917 6.357,19.071 6.357,15.56L6.357,0" style="fill:none;fill-rule:nonzero;stroke:rgb(16,134,76);stroke-width:1.21px;"/>
            </g>
            <g transform="matrix(5.555556,0,0,5.555556,4151.016111,2251.910556)">
                <path d="M0,-21.917C-3.511,-21.917 -6.357,-19.071 -6.357,-15.56L-6.357,0" style="fill:none;fill-rule:nonzero;stroke:rgb(16,134,76);stroke-width:1.21px;"/>
            </g>
            <g transform="matrix(5.555556,0,0,5.555556,4202.142222,2130.15)">
                <path d="M0,21.917C3.511,21.917 6.357,19.071 6.357,15.56L6.357,0" style="fill:none;fill-rule:nonzero;stroke:rgb(16,134,76);stroke-width:1.21px;"/>
            </g>
            <g transform="matrix(5.555556,0,0,5.555556,3972.668889,2130.15)">
                <path d="M0,21.917C3.511,21.917 6.357,19.071 6.357,15.56L6.357,0" style="fill:none;fill-rule:nonzero;stroke:rgb(16,134,76);stroke-width:1.21px;"/>
            </g>
            <g transform="matrix(5.555556,0,0,5.555556,5216.427222,2206.902222)">
                <path d="M0,-21.917C-3.511,-21.917 -6.357,-19.071 -6.357,-15.56L-6.357,0" style="fill:none;fill-rule:nonzero;stroke:rgb(16,134,76);stroke-width:1.21px;"/>
            </g>
            <g transform="matrix(5.555556,0,0,5.555556,5267.553333,2085.141667)">
                <path d="M0,21.917C3.511,21.917 6.357,19.071 6.357,15.56L6.357,0" style="fill:none;fill-rule:nonzero;stroke:rgb(16,134,76);stroke-width:1.21px;"/>
            </g>
            <g transform="matrix(5.555556,0,0,5.555556,4990.918889,2206.902222)">
                <path d="M0,-21.917C-3.511,-21.917 -6.357,-19.071 -6.357,-15.56L-6.357,0" style="fill:none;fill-rule:nonzero;stroke:rgb(16,134,76);stroke-width:1.21px;"/>
            </g>
            <g transform="matrix(5.555556,0,0,5.555556,5042.045,2085.141667)">
                <path d="M0,21.917C3.511,21.917 6.357,19.071 6.357,15.56L6.357,0" style="fill:none;fill-rule:nonzero;stroke:rgb(16,134,76);stroke-width:1.21px;"/>
            </g>
            <g transform="matrix(5.555556,0,0,5.555556,4766.66,2206.902222)">
                <path d="M0,-21.917C-3.511,-21.917 -6.357,-19.071 -6.357,-15.56L-6.357,0" style="fill:none;fill-rule:nonzero;stroke:rgb(16,134,76);stroke-width:1.21px;"/>
            </g>
            <g transform="matrix(5.555556,0,0,5.555556,4817.786111,2085.141667)">
                <path d="M0,21.917C3.511,21.917 6.357,19.071 6.357,15.56L6.357,0" style="fill:none;fill-rule:nonzero;stroke:rgb(16,134,76);stroke-width:1.21px;"/>
            </g>
            <g transform="matrix(5.555556,0,0,5.555556,4541.151667,2206.902222)">
                <path d="M0,-21.917C-3.511,-21.917 -6.357,-19.071 -6.357,-15.56L-6.357,0" style="fill:none;fill-rule:nonzero;stroke:rgb(16,134,76);stroke-width:1.21px;"/>
            </g>
            <g transform="matrix(5.555556,0,0,5.555556,4592.277778,2085.141667)">
                <path d="M0,21.917C3.511,21.917 6.357,19.071 6.357,15.56L6.357,0" style="fill:none;fill-rule:nonzero;stroke:rgb(16,134,76);stroke-width:1.21px;"/>
            </g>
            <g transform="matrix(5.555556,0,0,5.555556,4315.643333,2206.902222)">
                <path d="M0,-21.917C-3.511,-21.917 -6.357,-19.071 -6.357,-15.56L-6.357,0" style="fill:none;fill-rule:nonzero;stroke:rgb(16,134,76);stroke-width:1.21px;"/>
            </g>
            <g transform="matrix(5.555556,0,0,5.555556,4366.769444,2085.141667)">
                <path d="M0,21.917C3.511,21.917 6.357,19.071 6.357,15.56L6.357,0" style="fill:none;fill-rule:nonzero;stroke:rgb(16,134,76);stroke-width:1.21px;"/>
            </g>
            <g transform="matrix(5.555556,0,0,5.555556,4090.135,2206.902222)">
                <path d="M0,-21.917C-3.511,-21.917 -6.357,-19.071 -6.357,-15.56L-6.357,0" style="fill:none;fill-rule:nonzero;stroke:rgb(16,134,76);stroke-width:1.21px;"/>
            </g>
            <g transform="matrix(5.555556,0,0,5.555556,4141.261111,2085.141667)">
                <path d="M0,21.917C3.511,21.917 6.357,19.071 6.357,15.56L6.357,0" style="fill:none;fill-rule:nonzero;stroke:rgb(16,134,76);stroke-width:1.21px;"/>
            </g>
            <g transform="matrix(5.555556,0,0,5.555556,5277.308333,2411.042222)">
                <path d="M0,-21.917C-3.511,-21.917 -6.357,-19.071 -6.357,-15.56L-6.357,0" style="fill:none;fill-rule:nonzero;stroke:rgb(16,134,76);stroke-width:1.21px;"/>
            </g>
            <g transform="matrix(5.555556,0,0,5.555556,5328.434444,2289.281667)">
                <path d="M0,21.917C3.511,21.917 6.357,19.071 6.357,15.56L6.357,0" style="fill:none;fill-rule:nonzero;stroke:rgb(16,134,76);stroke-width:1.21px;"/>
            </g>
            <g transform="matrix(5.555556,0,0,5.555556,5051.8,2411.042222)">
                <path d="M0,-21.917C-3.511,-21.917 -6.357,-19.071 -6.357,-15.56L-6.357,0" style="fill:none;fill-rule:nonzero;stroke:rgb(16,134,76);stroke-width:1.21px;"/>
            </g>
            <g transform="matrix(5.555556,0,0,5.555556,5102.926111,2289.281667)">
                <path d="M0,21.917C3.511,21.917 6.357,19.071 6.357,15.56L6.357,0" style="fill:none;fill-rule:nonzero;stroke:rgb(16,134,76);stroke-width:1.21px;"/>
            </g>
            <g transform="matrix(5.555556,0,0,5.555556,4827.540556,2411.042222)">
                <path d="M0,-21.917C-3.511,-21.917 -6.357,-19.071 -6.357,-15.56L-6.357,0" style="fill:none;fill-rule:nonzero;stroke:rgb(16,134,76);stroke-width:1.21px;"/>
            </g>
            <g transform="matrix(5.555556,0,0,5.555556,4878.666667,2289.281667)">
                <path d="M0,21.917C3.511,21.917 6.357,19.071 6.357,15.56L6.357,0" style="fill:none;fill-rule:nonzero;stroke:rgb(16,134,76);stroke-width:1.21px;"/>
            </g>
            <g transform="matrix(5.555556,0,0,5.555556,4602.032222,2411.042222)">
                <path d="M0,-21.917C-3.511,-21.917 -6.357,-19.071 -6.357,-15.56L-6.357,0" style="fill:none;fill-rule:nonzero;stroke:rgb(16,134,76);stroke-width:1.21px;"/>
            </g>
            <g transform="matrix(5.555556,0,0,5.555556,4653.158333,2289.281667)">
                <path d="M0,21.917C3.511,21.917 6.357,19.071 6.357,15.56L6.357,0" style="fill:none;fill-rule:nonzero;stroke:rgb(16,134,76);stroke-width:1.21px;"/>
            </g>
            <g transform="matrix(5.555556,0,0,5.555556,4376.524444,2411.042222)">
                <path d="M0,-21.917C-3.511,-21.917 -6.357,-19.071 -6.357,-15.56L-6.357,0" style="fill:none;fill-rule:nonzero;stroke:rgb(16,134,76);stroke-width:1.21px;"/>
            </g>
            <g transform="matrix(5.555556,0,0,5.555556,4427.650556,2289.281667)">
                <path d="M0,21.917C3.511,21.917 6.357,19.071 6.357,15.56L6.357,0" style="fill:none;fill-rule:nonzero;stroke:rgb(16,134,76);stroke-width:1.21px;"/>
            </g>
            <g transform="matrix(5.555556,0,0,5.555556,4151.016111,2411.042222)">
                <path d="M0,-21.917C-3.511,-21.917 -6.357,-19.071 -6.357,-15.56L-6.357,0" style="fill:none;fill-rule:nonzero;stroke:rgb(16,134,76);stroke-width:1.21px;"/>
            </g>
            <g transform="matrix(5.555556,0,0,5.555556,4202.142222,2289.281667)">
                <path d="M0,21.917C3.511,21.917 6.357,19.071 6.357,15.56L6.357,0" style="fill:none;fill-rule:nonzero;stroke:rgb(16,134,76);stroke-width:1.21px;"/>
            </g>
            <g transform="matrix(5.555556,0,0,5.555556,3972.668889,2289.281667)">
                <path d="M0,21.917C3.511,21.917 6.357,19.071 6.357,15.56L6.357,0" style="fill:none;fill-rule:nonzero;stroke:rgb(16,134,76);stroke-width:1.21px;"/>
            </g>
            <g transform="matrix(5.555556,0,0,5.555556,5216.427222,2366.033889)">
                <path d="M0,-21.917C-3.511,-21.917 -6.357,-19.071 -6.357,-15.56L-6.357,0" style="fill:none;fill-rule:nonzero;stroke:rgb(16,134,76);stroke-width:1.21px;"/>
            </g>
            <g transform="matrix(5.555556,0,0,5.555556,5267.553333,2244.273333)">
                <path d="M0,21.917C3.511,21.917 6.357,19.071 6.357,15.56L6.357,0" style="fill:none;fill-rule:nonzero;stroke:rgb(16,134,76);stroke-width:1.21px;"/>
            </g>
            <g transform="matrix(5.555556,0,0,5.555556,4990.918889,2366.033889)">
                <path d="M0,-21.917C-3.511,-21.917 -6.357,-19.071 -6.357,-15.56L-6.357,0" style="fill:none;fill-rule:nonzero;stroke:rgb(16,134,76);stroke-width:1.21px;"/>
            </g>
            <g transform="matrix(5.555556,0,0,5.555556,5042.045,2244.273333)">
                <path d="M0,21.917C3.511,21.917 6.357,19.071 6.357,15.56L6.357,0" style="fill:none;fill-rule:nonzero;stroke:rgb(16,134,76);stroke-width:1.21px;"/>
            </g>
            <g transform="matrix(5.555556,0,0,5.555556,4766.66,2366.033889)">
                <path d="M0,-21.917C-3.511,-21.917 -6.357,-19.071 -6.357,-15.56L-6.357,0" style="fill:none;fill-rule:nonzero;stroke:rgb(16,134,76);stroke-width:1.21px;"/>
            </g>
            <g transform="matrix(5.555556,0,0,5.555556,4817.786111,2244.273333)">
                <path d="M0,21.917C3.511,21.917 6.357,19.071 6.357,15.56L6.357,0" style="fill:none;fill-rule:nonzero;stroke:rgb(16,134,76);stroke-width:1.21px;"/>
            </g>
            <g transform="matrix(5.555556,0,0,5.555556,4541.151667,2366.033889)">
                <path d="M0,-21.917C-3.511,-21.917 -6.357,-19.071 -6.357,-15.56L-6.357,0" style="fill:none;fill-rule:nonzero;stroke:rgb(16,134,76);stroke-width:1.21px;"/>
            </g>
            <g transform="matrix(5.555556,0,0,5.555556,4592.277778,2244.273333)">
                <path d="M0,21.917C3.511,21.917 6.357,19.071 6.357,15.56L6.357,0" style="fill:none;fill-rule:nonzero;stroke:rgb(16,134,76);stroke-width:1.21px;"/>
            </g>
            <g transform="matrix(5.555556,0,0,5.555556,4315.643333,2366.033889)">
                <path d="M0,-21.917C-3.511,-21.917 -6.357,-19.071 -6.357,-15.56L-6.357,0" style="fill:none;fill-rule:nonzero;stroke:rgb(16,134,76);stroke-width:1.21px;"/>
            </g>
            <g transform="matrix(5.555556,0,0,5.555556,4366.769444,2244.273333)">
                <path d="M0,21.917C3.511,21.917 6.357,19.071 6.357,15.56L6.357,0" style="fill:none;fill-rule:nonzero;stroke:rgb(16,134,76);stroke-width:1.21px;"/>
            </g>
            <g transform="matrix(5.555556,0,0,5.555556,4090.135,2366.033889)">
                <path d="M0,-21.917C-3.511,-21.917 -6.357,-19.071 -6.357,-15.56L-6.357,0" style="fill:none;fill-rule:nonzero;stroke:rgb(16,134,76);stroke-width:1.21px;"/>
            </g>
            <g transform="matrix(5.555556,0,0,5.555556,4141.261111,2244.273333)">
                <path d="M0,21.917C3.511,21.917 6.357,19.071 6.357,15.56L6.357,0" style="fill:none;fill-rule:nonzero;stroke:rgb(16,134,76);stroke-width:1.21px;"/>
            </g>
            <g transform="matrix(5.555556,0,0,5.555556,5277.308333,2570.173889)">
                <path d="M0,-21.917C-3.511,-21.917 -6.357,-19.071 -6.357,-15.56L-6.357,0" style="fill:none;fill-rule:nonzero;stroke:rgb(16,134,76);stroke-width:1.21px;"/>
            </g>
            <g transform="matrix(5.555556,0,0,5.555556,5328.434444,2448.413333)">
                <path d="M0,21.917C3.511,21.917 6.357,19.071 6.357,15.56L6.357,0" style="fill:none;fill-rule:nonzero;stroke:rgb(16,134,76);stroke-width:1.21px;"/>
            </g>
            <g transform="matrix(5.555556,0,0,5.555556,5051.8,2570.173889)">
                <path d="M0,-21.917C-3.511,-21.917 -6.357,-19.071 -6.357,-15.56L-6.357,0" style="fill:none;fill-rule:nonzero;stroke:rgb(16,134,76);stroke-width:1.21px;"/>
            </g>
            <g transform="matrix(5.555556,0,0,5.555556,5102.926111,2448.413333)">
                <path d="M0,21.917C3.511,21.917 6.357,19.071 6.357,15.56L6.357,0" style="fill:none;fill-rule:nonzero;stroke:rgb(16,134,76);stroke-width:1.21px;"/>
            </g>
            <g transform="matrix(5.555556,0,0,5.555556,4827.540556,2570.173889)">
                <path d="M0,-21.917C-3.511,-21.917 -6.357,-19.071 -6.357,-15.56L-6.357,0" style="fill:none;fill-rule:nonzero;stroke:rgb(16,134,76);stroke-width:1.21px;"/>
            </g>
            <g transform="matrix(5.555556,0,0,5.555556,4878.666667,2448.413333)">
                <path d="M0,21.917C3.511,21.917 6.357,19.071 6.357,15.56L6.357,0" style="fill:none;fill-rule:nonzero;stroke:rgb(16,134,76);stroke-width:1.21px;"/>
            </g>
            <g transform="matrix(5.555556,0,0,5.555556,4602.032222,2570.173889)">
                <path d="M0,-21.917C-3.511,-21.917 -6.357,-19.071 -6.357,-15.56L-6.357,0" style="fill:none;fill-rule:nonzero;stroke:rgb(16,134,76);stroke-width:1.21px;"/>
            </g>
            <g transform="matrix(5.555556,0,0,5.555556,4653.158333,2448.413333)">
                <path d="M0,21.917C3.511,21.917 6.357,19.071 6.357,15.56L6.357,0" style="fill:none;fill-rule:nonzero;stroke:rgb(16,134,76);stroke-width:1.21px;"/>
            </g>
            <g transform="matrix(5.555556,0,0,5.555556,4376.524444,2570.173889)">
                <path d="M0,-21.917C-3.511,-21.917 -6.357,-19.071 -6.357,-15.56L-6.357,0" style="fill:none;fill-rule:nonzero;stroke:rgb(16,134,76);stroke-width:1.21px;"/>
            </g>
            <g transform="matrix(5.555556,0,0,5.555556,4427.650556,2448.413333)">
                <path d="M0,21.917C3.511,21.917 6.357,19.071 6.357,15.56L6.357,0" style="fill:none;fill-rule:nonzero;stroke:rgb(16,134,76);stroke-width:1.21px;"/>
            </g>
            <g transform="matrix(5.555556,0,0,5.555556,4151.016111,2570.173889)">
                <path d="M0,-21.917C-3.511,-21.917 -6.357,-19.071 -6.357,-15.56L-6.357,0" style="fill:none;fill-rule:nonzero;stroke:rgb(16,134,76);stroke-width:1.21px;"/>
            </g>
            <g transform="matrix(5.555556,0,0,5.555556,4202.142222,2448.413333)">
                <path d="M0,21.917C3.511,21.917 6.357,19.071 6.357,15.56L6.357,0" style="fill:none;fill-rule:nonzero;stroke:rgb(16,134,76);stroke-width:1.21px;"/>
            </g>
            <g transform="matrix(5.555556,0,0,5.555556,3972.668889,2448.413333)">
                <path d="M0,21.917C3.511,21.917 6.357,19.071 6.357,15.56L6.357,0" style="fill:none;fill-rule:nonzero;stroke:rgb(16,134,76);stroke-width:1.21px;"/>
            </g>
            <g transform="matrix(5.555556,0,0,5.555556,5216.427222,2525.165556)">
                <path d="M0,-21.917C-3.511,-21.917 -6.357,-19.071 -6.357,-15.56L-6.357,0" style="fill:none;fill-rule:nonzero;stroke:rgb(16,134,76);stroke-width:1.21px;"/>
            </g>
            <g transform="matrix(5.555556,0,0,5.555556,5267.553333,2403.405)">
                <path d="M0,21.917C3.511,21.917 6.357,19.071 6.357,15.56L6.357,0" style="fill:none;fill-rule:nonzero;stroke:rgb(16,134,76);stroke-width:1.21px;"/>
            </g>
            <g transform="matrix(5.555556,0,0,5.555556,4990.918889,2525.165556)">
                <path d="M0,-21.917C-3.511,-21.917 -6.357,-19.071 -6.357,-15.56L-6.357,0" style="fill:none;fill-rule:nonzero;stroke:rgb(16,134,76);stroke-width:1.21px;"/>
            </g>
            <g transform="matrix(5.555556,0,0,5.555556,5042.045,2403.405)">
                <path d="M0,21.917C3.511,21.917 6.357,19.071 6.357,15.56L6.357,0" style="fill:none;fill-rule:nonzero;stroke:rgb(16,134,76);stroke-width:1.21px;"/>
            </g>
            <g transform="matrix(5.555556,0,0,5.555556,4766.66,2525.165556)">
                <path d="M0,-21.917C-3.511,-21.917 -6.357,-19.071 -6.357,-15.56L-6.357,0" style="fill:none;fill-rule:nonzero;stroke:rgb(16,134,76);stroke-width:1.21px;"/>
            </g>
            <g transform="matrix(5.555556,0,0,5.555556,4817.786111,2403.405)">
                <path d="M0,21.917C3.511,21.917 6.357,19.071 6.357,15.56L6.357,0" style="fill:none;fill-rule:nonzero;stroke:rgb(16,134,76);stroke-width:1.21px;"/>
            </g>
            <g transform="matrix(5.555556,0,0,5.555556,4541.151667,2525.165556)">
                <path d="M0,-21.917C-3.511,-21.917 -6.357,-19.071 -6.357,-15.56L-6.357,0" style="fill:none;fill-rule:nonzero;stroke:rgb(16,134,76);stroke-width:1.21px;"/>
            </g>
            <g transform="matrix(5.555556,0,0,5.555556,4592.277778,2403.405)">
                <path d="M0,21.917C3.511,21.917 6.357,19.071 6.357,15.56L6.357,0" style="fill:none;fill-rule:nonzero;stroke:rgb(16,134,76);stroke-width:1.21px;"/>
            </g>
            <g transform="matrix(5.555556,0,0,5.555556,4315.643333,2525.165556)">
                <path d="M0,-21.917C-3.511,-21.917 -6.357,-19.071 -6.357,-15.56L-6.357,0" style="fill:none;fill-rule:nonzero;stroke:rgb(16,134,76);stroke-width:1.21px;"/>
            </g>
            <g transform="matrix(5.555556,0,0,5.555556,4366.769444,2403.405)">
                <path d="M0,21.917C3.511,21.917 6.357,19.071 6.357,15.56L6.357,0" style="fill:none;fill-rule:nonzero;stroke:rgb(16,134,76);stroke-width:1.21px;"/>
            </g>
            <g transform="matrix(5.555556,0,0,5.555556,4090.135,2525.165556)">
                <path d="M0,-21.917C-3.511,-21.917 -6.357,-19.071 -6.357,-15.56L-6.357,0" style="fill:none;fill-rule:nonzero;stroke:rgb(16,134,76);stroke-width:1.21px;"/>
            </g>
            <g transform="matrix(5.555556,0,0,5.555556,4141.261111,2403.405)">
                <path d="M0,21.917C3.511,21.917 6.357,19.071 6.357,15.56L6.357,0" style="fill:none;fill-rule:nonzero;stroke:rgb(16,134,76);stroke-width:1.21px;"/>
            </g>
            <g transform="matrix(5.555556,0,0,5.555556,5277.308333,2729.305556)">
                <path d="M0,-21.917C-3.511,-21.917 -6.357,-19.071 -6.357,-15.56L-6.357,0" style="fill:none;fill-rule:nonzero;stroke:rgb(16,134,76);stroke-width:1.21px;"/>
            </g>
            <g transform="matrix(5.555556,0,0,5.555556,5328.434444,2607.545)">
                <path d="M0,21.917C3.511,21.917 6.357,19.071 6.357,15.56L6.357,0" style="fill:none;fill-rule:nonzero;stroke:rgb(16,134,76);stroke-width:1.21px;"/>
            </g>
            <g transform="matrix(5.555556,0,0,5.555556,5051.8,2729.305556)">
                <path d="M0,-21.917C-3.511,-21.917 -6.357,-19.071 -6.357,-15.56L-6.357,0" style="fill:none;fill-rule:nonzero;stroke:rgb(16,134,76);stroke-width:1.21px;"/>
            </g>
            <g transform="matrix(5.555556,0,0,5.555556,5102.926111,2607.545)">
                <path d="M0,21.917C3.511,21.917 6.357,19.071 6.357,15.56L6.357,0" style="fill:none;fill-rule:nonzero;stroke:rgb(16,134,76);stroke-width:1.21px;"/>
            </g>
            <g transform="matrix(5.555556,0,0,5.555556,4827.540556,2729.305556)">
                <path d="M0,-21.917C-3.511,-21.917 -6.357,-19.071 -6.357,-15.56L-6.357,0" style="fill:none;fill-rule:nonzero;stroke:rgb(16,134,76);stroke-width:1.21px;"/>
            </g>
            <g transform="matrix(5.555556,0,0,5.555556,4878.666667,2607.545)">
                <path d="M0,21.917C3.511,21.917 6.357,19.071 6.357,15.56L6.357,0" style="fill:none;fill-rule:nonzero;stroke:rgb(16,134,76);stroke-width:1.21px;"/>
            </g>
            <g transform="matrix(5.555556,0,0,5.555556,4602.032222,2729.305556)">
                <path d="M0,-21.917C-3.511,-21.917 -6.357,-19.071 -6.357,-15.56L-6.357,0" style="fill:none;fill-rule:nonzero;stroke:rgb(16,134,76);stroke-width:1.21px;"/>
            </g>
            <g transform="matrix(5.555556,0,0,5.555556,4653.158333,2607.545)">
                <path d="M0,21.917C3.511,21.917 6.357,19.071 6.357,15.56L6.357,0" style="fill:none;fill-rule:nonzero;stroke:rgb(16,134,76);stroke-width:1.21px;"/>
            </g>
            <g transform="matrix(5.555556,0,0,5.555556,4376.524444,2729.305556)">
                <path d="M0,-21.917C-3.511,-21.917 -6.357,-19.071 -6.357,-15.56L-6.357,0" style="fill:none;fill-rule:nonzero;stroke:rgb(16,134,76);stroke-width:1.21px;"/>
            </g>
            <g transform="matrix(5.555556,0,0,5.555556,4427.650556,2607.545)">
                <path d="M0,21.917C3.511,21.917 6.357,19.071 6.357,15.56L6.357,0" style="fill:none;fill-rule:nonzero;stroke:rgb(16,134,76);stroke-width:1.21px;"/>
            </g>
            <g transform="matrix(5.555556,0,0,5.555556,4151.016111,2729.305556)">
                <path d="M0,-21.917C-3.511,-21.917 -6.357,-19.071 -6.357,-15.56L-6.357,0" style="fill:none;fill-rule:nonzero;stroke:rgb(16,134,76);stroke-width:1.21px;"/>
            </g>
            <g transform="matrix(5.555556,0,0,5.555556,4202.142222,2607.545)">
                <path d="M0,21.917C3.511,21.917 6.357,19.071 6.357,15.56L6.357,0" style="fill:none;fill-rule:nonzero;stroke:rgb(16,134,76);stroke-width:1.21px;"/>
            </g>
            <g transform="matrix(5.555556,0,0,5.555556,3972.668889,2607.545)">
                <path d="M0,21.917C3.511,21.917 6.357,19.071 6.357,15.56L6.357,0" style="fill:none;fill-rule:nonzero;stroke:rgb(16,134,76);stroke-width:1.21px;"/>
            </g>
            <g transform="matrix(5.555556,0,0,5.555556,5216.427222,2684.297222)">
                <path d="M0,-21.917C-3.511,-21.917 -6.357,-19.071 -6.357,-15.56L-6.357,0" style="fill:none;fill-rule:nonzero;stroke:rgb(16,134,76);stroke-width:1.21px;"/>
            </g>
            <g transform="matrix(5.555556,0,0,5.555556,5267.553333,2562.536667)">
                <path d="M0,21.917C3.511,21.917 6.357,19.071 6.357,15.56L6.357,0" style="fill:none;fill-rule:nonzero;stroke:rgb(16,134,76);stroke-width:1.21px;"/>
            </g>
            <g transform="matrix(5.555556,0,0,5.555556,4990.918889,2684.297222)">
                <path d="M0,-21.917C-3.511,-21.917 -6.357,-19.071 -6.357,-15.56L-6.357,0" style="fill:none;fill-rule:nonzero;stroke:rgb(16,134,76);stroke-width:1.21px;"/>
            </g>
            <g transform="matrix(5.555556,0,0,5.555556,5042.045,2562.536667)">
                <path d="M0,21.917C3.511,21.917 6.357,19.071 6.357,15.56L6.357,0" style="fill:none;fill-rule:nonzero;stroke:rgb(16,134,76);stroke-width:1.21px;"/>
            </g>
            <g transform="matrix(5.555556,0,0,5.555556,4766.66,2684.297222)">
                <path d="M0,-21.917C-3.511,-21.917 -6.357,-19.071 -6.357,-15.56L-6.357,0" style="fill:none;fill-rule:nonzero;stroke:rgb(16,134,76);stroke-width:1.21px;"/>
            </g>
            <g transform="matrix(5.555556,0,0,5.555556,4817.786111,2562.536667)">
                <path d="M0,21.917C3.511,21.917 6.357,19.071 6.357,15.56L6.357,0" style="fill:none;fill-rule:nonzero;stroke:rgb(16,134,76);stroke-width:1.21px;"/>
            </g>
            <g transform="matrix(5.555556,0,0,5.555556,4541.151667,2684.297222)">
                <path d="M0,-21.917C-3.511,-21.917 -6.357,-19.071 -6.357,-15.56L-6.357,0" style="fill:none;fill-rule:nonzero;stroke:rgb(16,134,76);stroke-width:1.21px;"/>
            </g>
            <g transform="matrix(5.555556,0,0,5.555556,4592.277778,2562.536667)">
                <path d="M0,21.917C3.511,21.917 6.357,19.071 6.357,15.56L6.357,0" style="fill:none;fill-rule:nonzero;stroke:rgb(16,134,76);stroke-width:1.21px;"/>
            </g>
            <g transform="matrix(5.555556,0,0,5.555556,4315.643333,2684.297222)">
                <path d="M0,-21.917C-3.511,-21.917 -6.357,-19.071 -6.357,-15.56L-6.357,0" style="fill:none;fill-rule:nonzero;stroke:rgb(16,134,76);stroke-width:1.21px;"/>
            </g>
            <g transform="matrix(5.555556,0,0,5.555556,4366.769444,2562.536667)">
                <path d="M0,21.917C3.511,21.917 6.357,19.071 6.357,15.56L6.357,0" style="fill:none;fill-rule:nonzero;stroke:rgb(16,134,76);stroke-width:1.21px;"/>
            </g>
            <g transform="matrix(5.555556,0,0,5.555556,4090.135,2684.297222)">
                <path d="M0,-21.917C-3.511,-21.917 -6.357,-19.071 -6.357,-15.56L-6.357,0" style="fill:none;fill-rule:nonzero;stroke:rgb(16,134,76);stroke-width:1.21px;"/>
            </g>
            <g transform="matrix(5.555556,0,0,5.555556,4141.261111,2562.536667)">
                <path d="M0,21.917C3.511,21.917 6.357,19.071 6.357,15.56L6.357,0" style="fill:none;fill-rule:nonzero;stroke:rgb(16,134,76);stroke-width:1.21px;"/>
            </g>
            <g transform="matrix(5.555556,0,0,5.555556,5277.308333,2888.437222)">
                <path d="M0,-21.917C-3.511,-21.917 -6.357,-19.071 -6.357,-15.56L-6.357,0" style="fill:none;fill-rule:nonzero;stroke:rgb(16,134,76);stroke-width:1.21px;"/>
            </g>
            <g transform="matrix(5.555556,0,0,5.555556,5328.434444,2766.676667)">
                <path d="M0,21.917C3.511,21.917 6.357,19.071 6.357,15.56L6.357,0" style="fill:none;fill-rule:nonzero;stroke:rgb(16,134,76);stroke-width:1.21px;"/>
            </g>
            <g transform="matrix(5.555556,0,0,5.555556,5051.8,2888.437222)">
                <path d="M0,-21.917C-3.511,-21.917 -6.357,-19.071 -6.357,-15.56L-6.357,0" style="fill:none;fill-rule:nonzero;stroke:rgb(16,134,76);stroke-width:1.21px;"/>
            </g>
            <g transform="matrix(5.555556,0,0,5.555556,5102.926111,2766.676667)">
                <path d="M0,21.917C3.511,21.917 6.357,19.071 6.357,15.56L6.357,0" style="fill:none;fill-rule:nonzero;stroke:rgb(16,134,76);stroke-width:1.21px;"/>
            </g>
            <g transform="matrix(5.555556,0,0,5.555556,4827.540556,2888.437222)">
                <path d="M0,-21.917C-3.511,-21.917 -6.357,-19.071 -6.357,-15.56L-6.357,0" style="fill:none;fill-rule:nonzero;stroke:rgb(16,134,76);stroke-width:1.21px;"/>
            </g>
            <g transform="matrix(5.555556,0,0,5.555556,4602.032222,2888.437222)">
                <path d="M0,-21.917C-3.511,-21.917 -6.357,-19.071 -6.357,-15.56L-6.357,0" style="fill:none;fill-rule:nonzero;stroke:rgb(16,134,76);stroke-width:1.21px;"/>
            </g>
            <g transform="matrix(5.555556,0,0,5.555556,4653.158333,2766.676667)">
                <path d="M0,21.917C3.511,21.917 6.357,19.071 6.357,15.56L6.357,0" style="fill:none;fill-rule:nonzero;stroke:rgb(16,134,76);stroke-width:1.21px;"/>
            </g>
            <g transform="matrix(5.555556,0,0,5.555556,4376.524444,2888.437222)">
                <path d="M0,-21.917C-3.511,-21.917 -6.357,-19.071 -6.357,-15.56L-6.357,0" style="fill:none;fill-rule:nonzero;stroke:rgb(16,134,76);stroke-width:1.21px;"/>
            </g>
            <g transform="matrix(5.555556,0,0,5.555556,4427.650556,2766.676667)">
                <path d="M0,21.917C3.511,21.917 6.357,19.071 6.357,15.56L6.357,0" style="fill:none;fill-rule:nonzero;stroke:rgb(16,134,76);stroke-width:1.21px;"/>
            </g>
            <g transform="matrix(5.555556,0,0,5.555556,4151.016111,2888.437222)">
                <path d="M0,-21.917C-3.511,-21.917 -6.357,-19.071 -6.357,-15.56L-6.357,0" style="fill:none;fill-rule:nonzero;stroke:rgb(16,134,76);stroke-width:1.21px;"/>
            </g>
            <g transform="matrix(5.555556,0,0,5.555556,4202.142222,2766.676667)">
                <path d="M0,21.917C3.511,21.917 6.357,19.071 6.357,15.56L6.357,0" style="fill:none;fill-rule:nonzero;stroke:rgb(16,134,76);stroke-width:1.21px;"/>
            </g>
            <g transform="matrix(5.555556,0,0,5.555556,3972.668889,2766.676667)">
                <path d="M0,21.917C3.511,21.917 6.357,19.071 6.357,15.56L6.357,0" style="fill:none;fill-rule:nonzero;stroke:rgb(16,134,76);stroke-width:1.21px;"/>
            </g>
            <g transform="matrix(5.555556,0,0,5.555556,5216.427222,2843.428889)">
                <path d="M0,-21.917C-3.511,-21.917 -6.357,-19.071 -6.357,-15.56L-6.357,0" style="fill:none;fill-rule:nonzero;stroke:rgb(16,134,76);stroke-width:1.21px;"/>
            </g>
            <g transform="matrix(5.555556,0,0,5.555556,5267.553333,2721.668333)">
                <path d="M0,21.917C3.511,21.917 6.357,19.071 6.357,15.56L6.357,0" style="fill:none;fill-rule:nonzero;stroke:rgb(16,134,76);stroke-width:1.21px;"/>
            </g>
            <g transform="matrix(5.555556,0,0,5.555556,4990.918889,2843.428889)">
                <path d="M0,-21.917C-3.511,-21.917 -6.357,-19.071 -6.357,-15.56L-6.357,0" style="fill:none;fill-rule:nonzero;stroke:rgb(16,134,76);stroke-width:1.21px;"/>
            </g>
            <g transform="matrix(5.555556,0,0,5.555556,5042.045,2721.668333)">
                <path d="M0,21.917C3.511,21.917 6.357,19.071 6.357,15.56L6.357,0" style="fill:none;fill-rule:nonzero;stroke:rgb(16,134,76);stroke-width:1.21px;"/>
            </g>
            <g transform="matrix(5.555556,0,0,5.555556,4766.66,2843.428889)">
                <path d="M0,-21.917C-3.511,-21.917 -6.357,-19.071 -6.357,-15.56L-6.357,0" style="fill:none;fill-rule:nonzero;stroke:rgb(16,134,76);stroke-width:1.21px;"/>
            </g>
            <g transform="matrix(5.555556,0,0,5.555556,4817.786111,2721.668333)">
                <path d="M0,21.917C3.511,21.917 6.357,19.071 6.357,15.56L6.357,0" style="fill:none;fill-rule:nonzero;stroke:rgb(16,134,76);stroke-width:1.21px;"/>
            </g>
            <g transform="matrix(5.555556,0,0,5.555556,4541.151667,2843.428889)">
                <path d="M0,-21.917C-3.511,-21.917 -6.357,-19.071 -6.357,-15.56L-6.357,0" style="fill:none;fill-rule:nonzero;stroke:rgb(16,134,76);stroke-width:1.21px;"/>
            </g>
            <g transform="matrix(5.555556,0,0,5.555556,4592.277778,2721.668333)">
                <path d="M0,21.917C3.511,21.917 6.357,19.071 6.357,15.56L6.357,0" style="fill:none;fill-rule:nonzero;stroke:rgb(16,134,76);stroke-width:1.21px;"/>
            </g>
            <g transform="matrix(5.555556,0,0,5.555556,4315.643333,2843.428889)">
                <path d="M0,-21.917C-3.511,-21.917 -6.357,-19.071 -6.357,-15.56L-6.357,0" style="fill:none;fill-rule:nonzero;stroke:rgb(16,134,76);stroke-width:1.21px;"/>
            </g>
            <g transform="matrix(5.555556,0,0,5.555556,4366.769444,2721.668333)">
                <path d="M0,21.917C3.511,21.917 6.357,19.071 6.357,15.56L6.357,0" style="fill:none;fill-rule:nonzero;stroke:rgb(16,134,76);stroke-width:1.21px;"/>
            </g>
            <g transform="matrix(5.555556,0,0,5.555556,4090.135,2843.428889)">
                <path d="M0,-21.917C-3.511,-21.917 -6.357,-19.071 -6.357,-15.56L-6.357,0" style="fill:none;fill-rule:nonzero;stroke:rgb(16,134,76);stroke-width:1.21px;"/>
            </g>
            <g transform="matrix(5.555556,0,0,5.555556,4141.261111,2721.668333)">
                <path d="M0,21.917C3.511,21.917 6.357,19.071 6.357,15.56L6.357,0" style="fill:none;fill-rule:nonzero;stroke:rgb(16,134,76);stroke-width:1.21px;"/>
            </g>
        </g>
    </g>
</svg>
